<svg width="719" height="337" viewBox="0 0 719 337" fill="none" xmlns="http://www.w3.org/2000/svg">
<g style="mix-blend-mode:overlay" opacity="0.375419">
<g style="mix-blend-mode:overlay">
<path fill-rule="evenodd" clip-rule="evenodd" d="M10.2942 10.2126H6.29419C2.98048 10.2126 0.294189 12.8989 0.294189 16.2127V261.414C0.294189 264.727 2.98048 267.414 6.29419 267.414H140.478V336.213L224.233 266.471L702.651 267.402C705.969 267.409 708.662 264.72 708.662 261.402V257.394L236.233 256.471L152.478 326.213V257.414H16.2942C12.9805 257.414 10.2942 254.727 10.2942 251.414V10.2126Z" fill="black" fill-opacity="0.0650882"/>
</g>
<g style="mix-blend-mode:overlay" opacity="0.509536">
<path fill-rule="evenodd" clip-rule="evenodd" d="M10.2942 6.21265C10.2942 2.89894 12.9805 0.212646 16.2942 0.212646H712.662C715.976 0.212646 718.662 2.89894 718.662 6.21265V251.402C718.662 254.72 715.969 257.409 712.651 257.402L236.233 256.471L152.478 326.213V257.414H16.2942C12.9805 257.414 10.2942 254.727 10.2942 251.414V6.21265Z" fill="url(#paint0_linear)"/>
</g>
<g style="mix-blend-mode:overlay" opacity="0.448776">
<path fill-rule="evenodd" clip-rule="evenodd" d="M507.02 79.6284C507.02 97.7859 492.3 112.505 474.143 112.505C455.985 112.505 441.266 97.7859 441.266 79.6284C441.266 61.471 455.985 46.7515 474.143 46.7515C492.3 46.7515 507.02 61.471 507.02 79.6284ZM302.635 128.358C302.635 128.358 328.2 176.855 413.05 171.055C497.901 165.254 526.658 150.872 526.658 150.872C526.658 150.872 518.687 156.672 400.101 201.43C281.516 246.188 302.635 128.358 302.635 128.358ZM344.859 95.8954C368.178 95.8954 387.082 87.5544 387.082 77.2652C387.082 66.9759 368.178 58.6349 344.859 58.6349C321.539 58.6349 302.635 66.9759 302.635 77.2652C302.635 87.5544 321.539 95.8954 344.859 95.8954Z" fill="url(#paint1_linear)"/>
</g>
</g>
<defs>
<linearGradient id="paint0_linear" x1="10.2942" y1="174.993" x2="718.662" y2="174.993" gradientUnits="userSpaceOnUse">
<stop stop-color="white"/>
<stop offset="1" stop-color="white" stop-opacity="0.048823"/>
</linearGradient>
<linearGradient id="paint1_linear" x1="292.999" y1="239.735" x2="526.658" y2="239.735" gradientUnits="userSpaceOnUse">
<stop/>
<stop offset="1" stop-opacity="0.01"/>
</linearGradient>
</defs>
</svg>
