<?xml version="1.0" encoding="UTF-8"?>
<svg width="760px" height="415px" viewBox="0 0 760 415" version="1.1" xmlns="http://www.w3.org/2000/svg" xmlns:xlink="http://www.w3.org/1999/xlink">
    <title>id_0004--totalplacement</title>
    <defs>
        <linearGradient x1="0%" y1="35.0381851%" x2="100%" y2="64.0693341%" id="linearGradient-1">
            <stop stop-color="#2DC4B6" offset="0%"></stop>
            <stop stop-color="#152755" offset="100%"></stop>
        </linearGradient>
        <rect id="path-2" x="0" y="355" width="760" height="415.738964" rx="8.75239923"></rect>
        <filter x="-6.1%" y="-10.8%" width="112.3%" height="122.5%" filterUnits="objectBoundingBox" id="filter-3">
            <feMorphology radius="0.729366603" operator="dilate" in="SourceAlpha" result="shadowSpreadOuter1"></feMorphology>
            <feOffset dx="0" dy="2" in="shadowSpreadOuter1" result="shadowOffsetOuter1"></feOffset>
            <feGaussianBlur stdDeviation="15" in="shadowOffsetOuter1" result="shadowBlurOuter1"></feGaussianBlur>
            <feComposite in="shadowBlurOuter1" in2="SourceAlpha" operator="out" result="shadowBlurOuter1"></feComposite>
            <feColorMatrix values="0 0 0 0 0   0 0 0 0 0   0 0 0 0 0  0 0 0 0.15 0" type="matrix" in="shadowBlurOuter1"></feColorMatrix>
        </filter>
        <linearGradient x1="50%" y1="0%" x2="50%" y2="100%" id="linearGradient-4">
            <stop stop-color="#FFFFFF" stop-opacity="0" offset="0%"></stop>
            <stop stop-color="#FFFFFF" offset="100%"></stop>
        </linearGradient>
        <linearGradient x1="62.1015938%" y1="108.005476%" x2="62.1015938%" y2="-12.2718322%" id="linearGradient-5">
            <stop stop-color="#FFFFFF" stop-opacity="0" offset="0%"></stop>
            <stop stop-color="#FFFFFF" offset="50.1171192%"></stop>
            <stop stop-color="#FFFFFF" stop-opacity="0" offset="100%"></stop>
        </linearGradient>
        <linearGradient x1="62.1015938%" y1="108.005476%" x2="62.1015938%" y2="-12.2718322%" id="linearGradient-6">
            <stop stop-color="#FFFFFF" stop-opacity="0" offset="0%"></stop>
            <stop stop-color="#FFFFFF" offset="50.1171192%"></stop>
            <stop stop-color="#FFFFFF" stop-opacity="0" offset="100%"></stop>
        </linearGradient>
        <linearGradient x1="62.1015938%" y1="108.005476%" x2="62.1015938%" y2="-12.2718322%" id="linearGradient-7">
            <stop stop-color="#FFFFFF" stop-opacity="0" offset="0%"></stop>
            <stop stop-color="#FFFFFF" offset="50.1171192%"></stop>
            <stop stop-color="#FFFFFF" stop-opacity="0" offset="100%"></stop>
        </linearGradient>
        <radialGradient cx="50%" cy="0%" fx="50%" fy="0%" r="99.6976412%" gradientTransform="translate(0.500000,0.000000),scale(0.750341,1.000000),rotate(90.000000),scale(1.000000,1.615451),translate(-0.500000,-0.000000)" id="radialGradient-8">
            <stop stop-color="#5BE4DC" stop-opacity="0.260492925" offset="0%"></stop>
            <stop stop-color="#2EC4B6" stop-opacity="0" offset="100%"></stop>
        </radialGradient>
        <path d="M8.75239923,0 L378.494751,0 L378.494751,0 L377.096558,284 L8.75239923,284 C3.91858261,284 1.83555402e-14,280.081417 0,275.247601 L0,8.75239923 C-5.91971805e-16,3.91858261 3.91858261,-9.77018333e-15 8.75239923,0 Z" id="path-9"></path>
        <filter x="-6.1%" y="-16.9%" width="120.1%" height="126.8%" filterUnits="objectBoundingBox" id="filter-10">
            <feMorphology radius="0.5" operator="dilate" in="SourceAlpha" result="shadowSpreadOuter1"></feMorphology>
            <feOffset dx="15" dy="-10" in="shadowSpreadOuter1" result="shadowOffsetOuter1"></feOffset>
            <feGaussianBlur stdDeviation="10" in="shadowOffsetOuter1" result="shadowBlurOuter1"></feGaussianBlur>
            <feComposite in="shadowBlurOuter1" in2="SourceAlpha" operator="out" result="shadowBlurOuter1"></feComposite>
            <feColorMatrix values="0 0 0 0 0   0 0 0 0 0   0 0 0 0 0  0 0 0 0.15 0" type="matrix" in="shadowBlurOuter1"></feColorMatrix>
        </filter>
        <linearGradient x1="50%" y1="-37.7890389%" x2="50%" y2="99.6976412%" id="linearGradient-11">
            <stop stop-color="#FFFFFF" stop-opacity="0" offset="0%"></stop>
            <stop stop-color="#FFFFFF" stop-opacity="0.220716783" offset="100%"></stop>
        </linearGradient>
        <path d="M379,533.16375 C395.361468,533.16375 408.625058,546.42734 408.625058,562.788808 C408.625058,579.150276 395.361468,592.413866 379,592.413866 C362.638532,592.413866 349.374942,579.150276 349.374942,562.788808 C349.374942,546.42734 362.638532,533.16375 379,533.16375 Z M388.154189,553.441245 C383.900523,553.441245 381.038489,555.541821 381.038489,558.876485 C381.038489,565.38827 390.832423,563.366466 390.832423,566.832416 C390.832423,567.961476 389.808393,568.591649 388.101675,568.591649 C386.158642,568.591649 383.480408,567.515103 381.58989,565.834643 L379.935686,569.221821 C382.010005,570.981054 385.029583,572.13637 388.04916,572.13637 C392.119026,572.13637 395.243685,570.193338 395.243685,566.596102 C395.26989,559.979288 385.475955,561.869806 385.475955,558.482627 C385.475955,557.484854 386.421214,556.985967 387.812846,556.985967 C389.283249,556.985967 391.593882,557.721169 393.536915,558.876485 L395.138604,555.436793 C393.3006,554.228961 390.727395,553.441245 388.154189,553.441245 Z M367.219986,553.625046 L362.756262,553.625046 L369.976992,572.005084 L374.256915,572.005084 L381.556416,553.625046 L377.276493,553.625046 L372.235111,567.488846 L367.219986,553.625046 Z" id="path-12"></path>
        <filter x="-57.4%" y="-43.9%" width="214.8%" height="214.8%" filterUnits="objectBoundingBox" id="filter-13">
            <feOffset dx="0" dy="8" in="SourceAlpha" result="shadowOffsetOuter1"></feOffset>
            <feGaussianBlur stdDeviation="10" in="shadowOffsetOuter1" result="shadowBlurOuter1"></feGaussianBlur>
            <feColorMatrix values="0 0 0 0 0   0 0 0 0 0   0 0 0 0 0  0 0 0 0.3 0" type="matrix" in="shadowBlurOuter1"></feColorMatrix>
        </filter>
        <text id="text-14" font-family="Montserrat-Regular, Montserrat" font-size="22" font-weight="normal" line-spacing="30.6333973" fill="#FFFFFF">
            <tspan x="68.986" y="352.8798">You got a 12.5% increase on placements last week alone!</tspan>
        </text>
        <filter x="-0.8%" y="-6.5%" width="101.4%" height="125.8%" filterUnits="objectBoundingBox" id="filter-15">
            <feOffset dx="0" dy="2" in="SourceAlpha" result="shadowOffsetOuter1"></feOffset>
            <feGaussianBlur stdDeviation="1" in="shadowOffsetOuter1" result="shadowBlurOuter1"></feGaussianBlur>
            <feColorMatrix values="0 0 0 0 0   0 0 0 0 0   0 0 0 0 0  0 0 0 0.15 0" type="matrix" in="shadowBlurOuter1"></feColorMatrix>
        </filter>
    </defs>
    <g id="id_0004--totalplacement" stroke="none" stroke-width="1" fill="none" fill-rule="evenodd">
        <g id="Group-93" transform="translate(0.000000, -355.000000)">
            <g id="Group-32">
                <g id="Group-29">
                    <g id="Rectangle">
                        <use fill="black" fill-opacity="1" filter="url(#filter-3)" xlink:href="#path-2"></use>
                        <use stroke-opacity="0.05" stroke="#FFFFFF" stroke-width="1.45873321" fill="url(#linearGradient-1)" fill-rule="evenodd" xlink:href="#path-2"></use>
                    </g>
                    <path d="M379.724323,502.738964 C559.044683,502.738964 710.548119,615.720867 759.448646,770.739454 L-5.32907052e-15,770.739454 C48.9005265,615.720867 200.403963,502.738964 379.724323,502.738964 Z" id="Combined-Shape" fill="url(#linearGradient-4)" opacity="0.106381371" style="mix-blend-mode: overlay;"></path>
                    <g id="Group" transform="translate(117.836615, 0.000000)">
                        <path d="M262.163385,760 C370.938194,626.334881 425.325598,523.055618 425.325598,450.162212 C425.325598,340.822103 352.275387,287 262.163385,287 C172.051384,287 99.0011732,340.822103 99.0011732,450.162212 C99.0011732,523.055618 153.388577,626.334881 262.163385,760 Z" id="Combined-Shape" fill="url(#linearGradient-5)" opacity="0.108658564" style="mix-blend-mode: overlay;"></path>
                        <path d="M262.163385,760 C436.938976,545.231521 524.326771,379.285983 524.326771,262.163385 C524.326771,86.4794894 406.952225,0 262.163385,0 C117.374546,0 0,86.4794894 0,262.163385 C0,379.285983 87.3877951,545.231521 262.163385,760 Z" id="Combined-Shape" fill="url(#linearGradient-6)" opacity="0.0959254674" style="mix-blend-mode: overlay;"></path>
                        <path d="M260.892921,449 C320.142038,449 368.172937,484.388317 368.172937,556.280017 C368.172937,604.207817 332.412932,672.114478 260.892921,760 C189.372909,672.114478 153.612904,604.207817 153.612904,556.280017 C153.612904,484.388317 201.643803,449 260.892921,449 Z M264.071744,515.492942 L257.714097,515.492942 C254.203484,515.492942 251.35645,518.339976 251.35645,521.850589 L251.35645,550.46 L222.747038,550.46 C219.236425,550.46 216.389391,553.307034 216.389391,556.817647 L216.389391,563.175294 C216.389391,566.685908 219.236425,569.532941 222.747038,569.532941 L251.35645,569.532941 L251.35645,598.142353 C251.35645,601.652966 254.203484,604.5 257.714097,604.5 L264.071744,604.5 C267.582357,604.5 270.429391,601.652966 270.429391,598.142353 L270.429391,569.532941 L299.038803,569.532941 C302.549416,569.532941 305.39645,566.685908 305.39645,563.175294 L305.39645,556.817647 C305.39645,553.307034 302.549416,550.46 299.038803,550.46 L270.429391,550.46 L270.429391,521.850589 C270.429391,518.339976 267.582357,515.492942 264.071744,515.492942 Z" id="Combined-Shape" fill="url(#linearGradient-7)" opacity="0.148800805" style="mix-blend-mode: overlay;"></path>
                    </g>
                    <g style="mix-blend-mode: overlay;" transform="translate(0.000000, 355.000000)" id="Rectangle">
                        <g>
                            <use fill="black" fill-opacity="1" filter="url(#filter-10)" xlink:href="#path-9"></use>
                            <use stroke-opacity="0.0498781004" stroke="#2EC4B6" stroke-width="1" fill="url(#radialGradient-8)" fill-rule="evenodd" xlink:href="#path-9"></use>
                        </g>
                    </g>
                </g>
                <g id="Group-35" transform="translate(0.000000, 369.630518)">
                    <g id="Group-40" transform="translate(98.000000, 91.989443)" fill="#FFFFFF" font-weight="500">
                        <g id="Group-41">
                            <g id="Group-38" font-family="Graphik-Semibold, Graphik" font-size="72.9366603" letter-spacing="-1.45873325">
                                <g id="Group-21">
                                    <text id="2,130">
                                        <tspan x="0.752399433" y="60">2,130</tspan>
                                    </text>
                                </g>
                            </g>
                            <text id="THIS-WEEK" font-family="Montserrat-SemiBold, Montserrat" font-size="26.2571977" letter-spacing="-0.145873323" fill-opacity="0.45">
                                <tspan x="16.5871017" y="111.065259">THIS WEEK</tspan>
                            </text>
                        </g>
                    </g>
                    <g id="Group" transform="translate(589.374942, 0.000000)" fill="#FFFFFF" fill-opacity="0.4">
                        <g>
                            <path d="M140.625058,21 C142.281912,21 143.625058,22.3431458 143.625058,24 C143.625058,25.6568542 142.281912,27 140.625058,27 C138.968204,27 137.625058,25.6568542 137.625058,24 C137.625058,22.3431458 138.968204,21 140.625058,21 Z M140.625058,11 C142.281912,11 143.625058,12.3431458 143.625058,14 C143.625058,15.6568542 142.281912,17 140.625058,17 C138.968204,17 137.625058,15.6568542 137.625058,14 C137.625058,12.3431458 138.968204,11 140.625058,11 Z M140.625058,1 C142.281912,1 143.625058,2.34314575 143.625058,4 C143.625058,5.65685425 142.281912,7 140.625058,7 C138.968204,7 137.625058,5.65685425 137.625058,4 C137.625058,2.34314575 138.968204,1 140.625058,1 Z" id="Combined-Shape"></path>
                            <path d="M112.3214,13.3449653 C112.33464,20.5075336 106.493404,26.3644428 99.3308356,26.3694784 C96.2373128,26.3716767 93.3957693,25.2933076 91.1627611,23.4910808 C90.5821129,23.0224526 90.5387097,22.1522404 91.066362,21.6245881 L91.6569699,21.0339802 C92.1082473,20.5827028 92.8286977,20.5333239 93.3286726,20.9299804 C94.9738513,22.2354822 97.055892,23.0146946 99.3214002,23.0146946 C104.652701,23.0146946 108.966545,18.7000125 108.966545,13.36955 C108.966545,8.03824871 104.651863,3.72440537 99.3214002,3.72440537 C96.7626062,3.72440537 94.4385981,4.71874639 92.7130084,6.34180407 L95.3734957,9.0022914 C95.9018819,9.53067758 95.5276608,10.4340712 94.7804766,10.4340712 L87.1601309,10.4340712 C86.6969019,10.4340712 86.3214227,10.058592 86.3214227,9.59536295 L86.3214227,1.97501727 C86.3214227,1.22783308 87.2248163,0.853611951 87.7532025,1.38194571 L90.3412464,3.96998962 C92.6751093,1.73960235 95.8382449,0.369572466 99.3214002,0.369572466 C106.49288,0.369572466 112.308116,6.17657854 112.3214,13.3449653 Z M102.838104,17.4747646 L103.353018,16.8127093 C103.779606,16.2642466 103.680796,15.4738165 103.132333,15.0472809 L100.998817,13.3878443 L100.998817,7.9179465 C100.998817,7.22312915 100.435572,6.65988416 99.7407543,6.65988416 L98.9020461,6.65988416 C98.2072287,6.65988416 97.6439837,7.22312915 97.6439837,7.9179465 L97.6439837,15.0286721 L101.072675,17.6954497 C101.621138,18.1219853 102.411516,18.0232274 102.838104,17.4747646 L102.838104,17.4747646 Z" id="Shape" fill-rule="nonzero"></path>
                            <path d="M58.0177873,0.369481766 C65.1974891,0.369481766 71.0177873,6.18978002 71.0177873,13.3694818 C71.0177873,20.5491835 65.1974891,26.3694818 58.0177873,26.3694818 C50.8380856,26.3694818 45.0177873,20.5491835 45.0177873,13.3694818 C45.0177873,6.18978002 50.8380856,0.369481766 58.0177873,0.369481766 Z M62.5348077,9.26760588 C60.6682237,9.26760588 59.4123123,10.1893757 59.4123123,11.6526854 C59.4123123,14.510172 63.7100642,13.6229685 63.7100642,15.1438887 C63.7100642,15.63934 63.2607014,15.915871 62.5117634,15.915871 C61.6591263,15.915871 60.4838697,15.443464 59.6542769,14.7060481 L58.9283831,16.192402 C59.8386308,16.9643842 61.163675,17.4713576 62.4887192,17.4713576 C64.2746483,17.4713576 65.6458041,16.6187205 65.6458041,15.0401896 C65.6573031,12.1366146 61.3595511,12.9662075 61.3595511,11.4798536 C61.3595511,11.0420129 61.7743475,10.8230925 62.3850201,10.8230925 C63.030259,10.8230925 64.0442058,11.145712 64.8968429,11.6526854 L65.5996925,10.1432873 C64.7931438,9.61326958 63.6639758,9.26760588 62.5348077,9.26760588 Z M52.3485085,9.34826075 L50.3897476,9.34826075 L53.5583315,17.413747 L55.4364376,17.413747 L58.6395878,9.34826075 L56.7614817,9.34826075 L54.5492341,15.4319418 L52.3485085,9.34826075 Z" id="Combined-Shape"></path>
                            <path d="M26.8307545,2.15105928 C23.6677925,-0.541811088 18.9378586,-0.0949338942 16.001237,2.93454527 L14.8579278,4.11847965 L13.7146187,2.94034887 C11.3467499,0.491229698 6.57038715,-0.982884683 2.8851012,2.15105928 C-0.759559552,5.26178884 -0.951078349,10.844852 2.31054481,14.2109399 L13.5405107,25.8065326 C13.9003339,26.177963 14.3762291,26.3694818 14.8521242,26.3694818 C15.3280194,26.3694818 15.8039146,26.1837666 16.1637378,25.8065326 L27.3937037,14.2109399 C30.666934,10.844852 30.4754152,5.26178884 26.8307545,2.15105928 Z M26.0704829,12.9225407 L14.8811422,24.5181334 L3.64537279,12.9225407 C1.41679042,10.6243152 0.952502426,6.24259722 4.09224999,3.56713766 C7.27262274,0.851052894 11.0101411,2.81847327 12.3797907,4.23455165 L14.8579278,6.79393922 L17.336065,4.23455165 C18.6825002,2.84168767 22.4548401,0.868463693 25.6236057,3.56713766 C28.7575497,6.23679362 28.2990653,10.6185116 26.0704829,12.9225407 Z" id="Shape" fill-rule="nonzero"></path>
                        </g>
                    </g>
                    <path d="M0,269.822457 L760,269.822457 L760,392.356046 C760,397.189863 756.081417,401.108445 751.247601,401.108445 L8.75239923,401.108445 C3.91858261,401.108445 1.83555402e-14,397.189863 0,392.356046 L0,269.822457 L0,269.822457 Z" id="Rectangle" fill="url(#linearGradient-11)"></path>
                </g>
                <g id="Combined-Shape">
                    <use fill="black" fill-opacity="1" filter="url(#filter-13)" xlink:href="#path-12"></use>
                    <use fill="#4AE4FE" fill-rule="evenodd" xlink:href="#path-12"></use>
                </g>
            </g>
            <g id="Group-40" transform="translate(459.905950, 461.403792)" fill="#FFFFFF" font-weight="500">
                <g id="Group-41">
                    <g id="Group-38" font-family="Graphik-Semibold, Graphik" font-size="72.9366603" letter-spacing="-1.45873325">
                        <g id="Group-21">
                            <text id="6,382">
                                <tspan x="0.696737244" y="60">6,382</tspan>
                            </text>
                        </g>
                    </g>
                    <text id="ALL-TIMES" font-family="Montserrat-SemiBold, Montserrat" font-size="26.2571977" letter-spacing="-0.145873323" fill-opacity="0.45">
                        <tspan x="40.8888292" y="111.065259">ALL TIMES</tspan>
                    </text>
                </g>
            </g>
        </g>
        <text id="6-DAYS-AGO" font-family="Montserrat-Regular, Montserrat" font-size="9" font-weight="normal" line-spacing="21" letter-spacing="-0.09" fill="#FFFFFF">
            <tspan x="352.4375" y="393.738964">6 DAYS AGO</tspan>
        </text>
        <text id="TOTAL-PLACEMENTS" font-family="Montserrat-SemiBold, Montserrat" font-size="30" font-weight="500" letter-spacing="-0.166666669" fill="#FFFFFF">
            <tspan x="225.723333" y="51">TOTAL PLACEMENTS</tspan>
        </text>
        <g id="You-got-a-12.5%-incr" fill="#FFFFFF" fill-opacity="1">
            <use filter="url(#filter-15)" xlink:href="#text-14"></use>
            <use xlink:href="#text-14"></use>
        </g>
    </g>
</svg>