<?xml version="1.0" encoding="UTF-8"?>
<svg width="760px" height="415px" viewBox="0 0 760 415" version="1.1" xmlns="http://www.w3.org/2000/svg" xmlns:xlink="http://www.w3.org/1999/xlink">
    <title>id_0021--views-to-listen-ratio</title>
    <defs>
        <radialGradient cx="50%" cy="0%" fx="50%" fy="0%" r="99.6976412%" gradientTransform="translate(0.500000,0.000000),scale(0.547269,1.000000),rotate(90.000000),scale(1.000000,1.615451),translate(-0.500000,-0.000000)" id="radialGradient-1">
            <stop stop-color="#FFFFFF" stop-opacity="0.260492925" offset="0%"></stop>
            <stop stop-color="#2EC4B6" stop-opacity="0" offset="100%"></stop>
        </radialGradient>
        <rect id="path-2" x="0.000983574594" y="0.0029203047" width="759.661622" height="415.738964" rx="8.75239923"></rect>
        <filter x="-6.2%" y="-10.8%" width="112.3%" height="122.5%" filterUnits="objectBoundingBox" id="filter-3">
            <feMorphology radius="0.729366603" operator="dilate" in="SourceAlpha" result="shadowSpreadOuter1"></feMorphology>
            <feOffset dx="0" dy="2" in="shadowSpreadOuter1" result="shadowOffsetOuter1"></feOffset>
            <feGaussianBlur stdDeviation="15" in="shadowOffsetOuter1" result="shadowBlurOuter1"></feGaussianBlur>
            <feComposite in="shadowBlurOuter1" in2="SourceAlpha" operator="out" result="shadowBlurOuter1"></feComposite>
            <feColorMatrix values="0 0 0 0 0   0 0 0 0 0   0 0 0 0 0  0 0 0 0.15 0" type="matrix" in="shadowBlurOuter1"></feColorMatrix>
        </filter>
        <linearGradient x1="50%" y1="0%" x2="50%" y2="88.1996687%" id="linearGradient-4">
            <stop stop-color="#000000" offset="0%"></stop>
            <stop stop-color="#000000" stop-opacity="0" offset="100%"></stop>
        </linearGradient>
        <linearGradient x1="50%" y1="-15.9566243%" x2="50%" y2="99.6976412%" id="linearGradient-5">
            <stop stop-color="#FFFFFF" stop-opacity="0" offset="0%"></stop>
            <stop stop-color="#FFFFFF" stop-opacity="0.220716783" offset="100%"></stop>
        </linearGradient>
        <text id="text-6" font-family="Montserrat-SemiBold, Montserrat" font-size="19" font-weight="500" line-spacing="30.6333973" letter-spacing="-0.05" fill="#FFFFFF">
            <tspan x="177.282811" y="337.465983">This ratio is among the top 28% best ratios </tspan>
            <tspan x="237.927811" y="368.09938">for all songs in Playsliter Club.</tspan>
        </text>
        <filter x="-0.4%" y="-1.6%" width="100.8%" height="106.5%" filterUnits="objectBoundingBox" id="filter-7">
            <feOffset dx="0" dy="1" in="SourceAlpha" result="shadowOffsetOuter1"></feOffset>
            <feGaussianBlur stdDeviation="0.5" in="shadowOffsetOuter1" result="shadowBlurOuter1"></feGaussianBlur>
            <feColorMatrix values="0 0 0 0 0   0 0 0 0 0   0 0 0 0 0  0 0 0 0.15 0" type="matrix" in="shadowBlurOuter1"></feColorMatrix>
        </filter>
    </defs>
    <g id="id_0021--views-to-listen-ratio" stroke="none" stroke-width="1" fill="none" fill-rule="evenodd">
        <g id="Group-134" transform="translate(0.000000, 0.000000)">
            <g id="CARD-FEED" transform="translate(0.000000, 0.000000)">
                <g id="Group-32" transform="translate(0.337395, 0.000000)">
                    <g id="Group-29">
                        <g id="Rectangle">
                            <use fill="black" fill-opacity="1" filter="url(#filter-3)" xlink:href="#path-2"></use>
                            <use stroke-opacity="0.05" stroke="#FFFFFF" stroke-width="1.45873321" fill="url(#radialGradient-1)" fill-rule="evenodd" xlink:href="#path-2"></use>
                        </g>
                        <g id="Group-102" opacity="0.303433373" style="mix-blend-mode: overlay;">
                            <path d="M397.191815,-0.000456854963 C426.344235,42.1798342 443.419392,93.3461353 443.419392,148.500553 C443.419392,292.923015 326.341854,410.000553 181.919392,410.000553 C111.216562,410.000553 47.0673458,381.941198 3.19744231e-14,336.350745 L0.0011342996,8.75531954 C0.0011342996,3.92150292 3.91971691,0.0029203047 8.75353353,0.0029203047 Z" id="Combined-Shape" fill-opacity="0.255444507" fill="#1B1E29"></path>
                            <path d="M126.597954,-57.0567552 C224.766568,-57.0567552 304.347954,22.5246305 304.347954,120.693245 C304.347954,218.861859 224.766568,298.443245 126.597954,298.443245 C104.173599,298.443245 82.7191051,294.290779 62.9614641,286.71284 L62.9614641,-45.3263502 C82.7191051,-52.9042893 104.173599,-57.0567552 126.597954,-57.0567552 Z" id="Combined-Shape" fill-opacity="0.4" fill="#FFFFFF" style="mix-blend-mode: overlay;" transform="translate(183.654709, 120.693245) rotate(-270.000000) translate(-183.654709, -120.693245) "></path>
                            <circle id="Oval" fill-opacity="0.4" fill="#FFFFFF" style="mix-blend-mode: overlay;" transform="translate(183.654709, 232.250553) rotate(-270.000000) translate(-183.654709, -232.250553) " cx="183.654709" cy="232.250553" r="177.75"></circle>
                            <circle id="Oval" fill-opacity="0.660147714" fill="#000000" transform="translate(178.362784, 148.601214) rotate(-270.000000) translate(-178.362784, -148.601214) " cx="178.362784" cy="148.601214" r="81.9059471"></circle>
                        </g>
                        <path d="M182.518776,20.124648 C252.413141,21.5133345 322.549004,90.9888024 294.417693,182.538352 C274.458274,247.493582 213.030187,325.733632 145.968397,359.610342 C201.074733,328.942848 265.81643,242.085391 272.31885,188.055074 C280.321606,121.558076 239.868896,67.6516087 181.965193,67.6516087 C124.779829,67.6516087 86.4894721,121.149323 99.4847812,170.989945 C100.527387,173.18468 101.203314,179.333952 100.890697,181.931569 C99.7753963,191.198894 84.6601736,211.482558 70.1909838,196.707063 C55.721794,181.931569 50.2189116,136.71824 56.6231622,113.233003 C72.0273913,56.7436503 112.62441,18.7359615 182.518776,20.124648 Z" id="Path" fill="url(#linearGradient-4)" opacity="0.0725955055"></path>
                        <g id="Group-99" transform="translate(68.662605, 38.353454)">
                            <path d="M109.570993,2.58479686e-05 L109.5711,15.835 L109.647099,15.8345993 C110.137422,15.8345993 110.626865,15.838361 111.115403,15.845857 C110.626992,15.8383619 110.137485,15.8345993 109.647099,15.8345993 C57.8358862,15.8345993 15.8345993,57.8358862 15.8345993,109.647099 C15.8345993,161.458312 57.8358862,203.459599 109.647099,203.459599 C161.458312,203.459599 203.459599,161.458312 203.459599,109.647099 C203.459599,98.7953634 201.617074,88.3739723 198.227801,78.6787041 C198.500044,79.457464 198.762449,80.2413512 199.014711,81.029775 L199.014711,81.029775 L214.100353,76.2035081 C217.473323,86.7468966 219.294199,97.9843539 219.294199,109.647099 C219.294199,170.20352 170.20352,219.294199 109.647099,219.294199 C49.0906785,219.294199 0,170.20352 0,109.647099 C0,49.1160494 49.0495527,0.041136429 109.570993,2.58479686e-05 Z" id="Combined-Shape" fill="#2EC4B6"></path>
                            <path d="M109.647099,0 C158.540775,0 199.959864,32.0025075 214.100353,76.2035081 L199.014711,81.029775 C186.915254,43.2138184 151.478556,15.8345993 109.647099,15.8345993 L109.5711,15.835 L109.571911,2.52278653e-05 C109.596972,8.41017775e-06 109.622035,0 109.647099,0 Z" id="Combined-Shape" fill="#FFFFFF"></path>
                            <text id="5:1" font-family="Graphik-Semibold, Graphik" font-size="95" font-weight="500" letter-spacing="-1.9" fill="#FFFFFF">
                                <tspan x="50.3270993" y="140.147112">5:1</tspan>
                            </text>
                        </g>
                    </g>
                    <g id="Group-100" transform="translate(379.831794, 63.408278)" fill="#FFFFFF">
                        <text id="THIS-SONG’S-VIEWS-TO" font-family="Montserrat-SemiBold, Montserrat" font-size="26.2571977" font-weight="500" letter-spacing="-0.145873323">
                            <tspan x="0" y="25">THIS SONG’S </tspan>
                            <tspan x="0" y="57">VIEWS TO LISTENS</tspan>
                            <tspan x="0" y="89">RATIO</tspan>
                        </text>
                        <text id="Your-song-is-listene" font-family="Montserrat-Regular, Montserrat" font-size="18" font-weight="normal" letter-spacing="-0.100000001" fill-opacity="0.45">
                            <tspan x="0" y="135.642749">Your song is listened to 1 out </tspan>
                            <tspan x="0" y="157.642749">of every 5 times it is viewed </tspan>
                            <tspan x="0" y="179.642749">or 20% of the times.</tspan>
                        </text>
                    </g>
                </g>
                <path d="M0,284.456386 L759.661622,284.456386 L759.661622,406.989975 C759.661622,411.823792 755.743039,415.742374 750.909222,415.742374 L8.75239923,415.742374 C3.91858261,415.742374 1.83555402e-14,411.823792 0,406.989975 L0,284.456386 L0,284.456386 Z" id="Rectangle" fill="url(#linearGradient-5)"></path>
                <g id="Group" transform="translate(590.374942, 14.630518)" fill="#FFFFFF" fill-opacity="0.4">
                    <g>
                        <path d="M140.625058,21 C142.281912,21 143.625058,22.3431458 143.625058,24 C143.625058,25.6568542 142.281912,27 140.625058,27 C138.968204,27 137.625058,25.6568542 137.625058,24 C137.625058,22.3431458 138.968204,21 140.625058,21 Z M140.625058,11 C142.281912,11 143.625058,12.3431458 143.625058,14 C143.625058,15.6568542 142.281912,17 140.625058,17 C138.968204,17 137.625058,15.6568542 137.625058,14 C137.625058,12.3431458 138.968204,11 140.625058,11 Z M140.625058,1 C142.281912,1 143.625058,2.34314575 143.625058,4 C143.625058,5.65685425 142.281912,7 140.625058,7 C138.968204,7 137.625058,5.65685425 137.625058,4 C137.625058,2.34314575 138.968204,1 140.625058,1 Z" id="Combined-Shape"></path>
                        <path d="M112.3214,13.3449653 C112.33464,20.5075336 106.493404,26.3644428 99.3308356,26.3694784 C96.2373128,26.3716767 93.3957693,25.2933076 91.1627611,23.4910808 C90.5821129,23.0224526 90.5387097,22.1522404 91.066362,21.6245881 L91.6569699,21.0339802 C92.1082473,20.5827028 92.8286977,20.5333239 93.3286726,20.9299804 C94.9738513,22.2354822 97.055892,23.0146946 99.3214002,23.0146946 C104.652701,23.0146946 108.966545,18.7000125 108.966545,13.36955 C108.966545,8.03824871 104.651863,3.72440537 99.3214002,3.72440537 C96.7626062,3.72440537 94.4385981,4.71874639 92.7130084,6.34180407 L95.3734957,9.0022914 C95.9018819,9.53067758 95.5276608,10.4340712 94.7804766,10.4340712 L87.1601309,10.4340712 C86.6969019,10.4340712 86.3214227,10.058592 86.3214227,9.59536295 L86.3214227,1.97501727 C86.3214227,1.22783308 87.2248163,0.853611951 87.7532025,1.38194571 L90.3412464,3.96998962 C92.6751093,1.73960235 95.8382449,0.369572466 99.3214002,0.369572466 C106.49288,0.369572466 112.308116,6.17657854 112.3214,13.3449653 Z M102.838104,17.4747646 L103.353018,16.8127093 C103.779606,16.2642466 103.680796,15.4738165 103.132333,15.0472809 L100.998817,13.3878443 L100.998817,7.9179465 C100.998817,7.22312915 100.435572,6.65988416 99.7407543,6.65988416 L98.9020461,6.65988416 C98.2072287,6.65988416 97.6439837,7.22312915 97.6439837,7.9179465 L97.6439837,15.0286721 L101.072675,17.6954497 C101.621138,18.1219853 102.411516,18.0232274 102.838104,17.4747646 L102.838104,17.4747646 Z" id="Shape" fill-rule="nonzero"></path>
                        <path d="M58.0177873,0.369481766 C65.1974891,0.369481766 71.0177873,6.18978002 71.0177873,13.3694818 C71.0177873,20.5491835 65.1974891,26.3694818 58.0177873,26.3694818 C50.8380856,26.3694818 45.0177873,20.5491835 45.0177873,13.3694818 C45.0177873,6.18978002 50.8380856,0.369481766 58.0177873,0.369481766 Z M62.5348077,9.26760588 C60.6682237,9.26760588 59.4123123,10.1893757 59.4123123,11.6526854 C59.4123123,14.510172 63.7100642,13.6229685 63.7100642,15.1438887 C63.7100642,15.63934 63.2607014,15.915871 62.5117634,15.915871 C61.6591263,15.915871 60.4838697,15.443464 59.6542769,14.7060481 L58.9283831,16.192402 C59.8386308,16.9643842 61.163675,17.4713576 62.4887192,17.4713576 C64.2746483,17.4713576 65.6458041,16.6187205 65.6458041,15.0401896 C65.6573031,12.1366146 61.3595511,12.9662075 61.3595511,11.4798536 C61.3595511,11.0420129 61.7743475,10.8230925 62.3850201,10.8230925 C63.030259,10.8230925 64.0442058,11.145712 64.8968429,11.6526854 L65.5996925,10.1432873 C64.7931438,9.61326958 63.6639758,9.26760588 62.5348077,9.26760588 Z M52.3485085,9.34826075 L50.3897476,9.34826075 L53.5583315,17.413747 L55.4364376,17.413747 L58.6395878,9.34826075 L56.7614817,9.34826075 L54.5492341,15.4319418 L52.3485085,9.34826075 Z" id="Combined-Shape"></path>
                        <path d="M26.8307545,2.15105928 C23.6677925,-0.541811088 18.9378586,-0.0949338942 16.001237,2.93454527 L14.8579278,4.11847965 L13.7146187,2.94034887 C11.3467499,0.491229698 6.57038715,-0.982884683 2.8851012,2.15105928 C-0.759559552,5.26178884 -0.951078349,10.844852 2.31054481,14.2109399 L13.5405107,25.8065326 C13.9003339,26.177963 14.3762291,26.3694818 14.8521242,26.3694818 C15.3280194,26.3694818 15.8039146,26.1837666 16.1637378,25.8065326 L27.3937037,14.2109399 C30.666934,10.844852 30.4754152,5.26178884 26.8307545,2.15105928 Z M26.0704829,12.9225407 L14.8811422,24.5181334 L3.64537279,12.9225407 C1.41679042,10.6243152 0.952502426,6.24259722 4.09224999,3.56713766 C7.27262274,0.851052894 11.0101411,2.81847327 12.3797907,4.23455165 L14.8579278,6.79393922 L17.336065,4.23455165 C18.6825002,2.84168767 22.4548401,0.868463693 25.6236057,3.56713766 C28.7575497,6.23679362 28.2990653,10.6185116 26.0704829,12.9225407 Z" id="Shape" fill-rule="nonzero"></path>
                    </g>
                </g>
                <g id="This-ratio-is-among" fill="#FFFFFF" fill-opacity="1">
                    <use filter="url(#filter-7)" xlink:href="#text-6"></use>
                    <use xlink:href="#text-6"></use>
                </g>
            </g>
            <text id="1-HOURS-AGO" font-family="Montserrat-Regular, Montserrat" font-size="9" font-weight="normal" line-spacing="21" letter-spacing="-0.09" fill="#FFFFFF">
                <tspan x="343.9455" y="393.742374">1 HOURS AGO</tspan>
            </text>
        </g>
    </g>
</svg>