<?xml version="1.0" encoding="UTF-8"?>
<svg width="760px" height="415px" viewBox="0 0 760 415" version="1.1" xmlns="http://www.w3.org/2000/svg" xmlns:xlink="http://www.w3.org/1999/xlink">
    <title>id_0003--totalreviewsx</title>
    <defs>
        <linearGradient x1="0%" y1="35.0381851%" x2="100%" y2="64.0693341%" id="linearGradient-1">
            <stop stop-color="#2DC4B6" offset="0%"></stop>
            <stop stop-color="#152755" offset="100%"></stop>
        </linearGradient>
        <rect id="path-2" x="0" y="9.09494702e-13" width="760" height="415.738964" rx="8.75239923"></rect>
        <filter x="-6.1%" y="-10.8%" width="112.3%" height="122.5%" filterUnits="objectBoundingBox" id="filter-3">
            <feMorphology radius="0.729366603" operator="dilate" in="SourceAlpha" result="shadowSpreadOuter1"></feMorphology>
            <feOffset dx="0" dy="2" in="shadowSpreadOuter1" result="shadowOffsetOuter1"></feOffset>
            <feGaussianBlur stdDeviation="15" in="shadowOffsetOuter1" result="shadowBlurOuter1"></feGaussianBlur>
            <feComposite in="shadowBlurOuter1" in2="SourceAlpha" operator="out" result="shadowBlurOuter1"></feComposite>
            <feColorMatrix values="0 0 0 0 0   0 0 0 0 0   0 0 0 0 0  0 0 0 0.15 0" type="matrix" in="shadowBlurOuter1"></feColorMatrix>
        </filter>
        <radialGradient cx="50%" cy="0%" fx="50%" fy="0%" r="99.6976412%" gradientTransform="translate(0.500000,0.000000),scale(0.750341,1.000000),rotate(90.000000),scale(1.000000,1.615451),translate(-0.500000,-0.000000)" id="radialGradient-4">
            <stop stop-color="#5BE4DC" stop-opacity="0.260492925" offset="0%"></stop>
            <stop stop-color="#2EC4B6" stop-opacity="0" offset="100%"></stop>
        </radialGradient>
        <path d="M8.75239923,0 L378.494751,0 L378.494751,0 L377.096558,284 L8.75239923,284 C3.91858261,284 1.83555402e-14,280.081417 0,275.247601 L0,8.75239923 C-5.91971805e-16,3.91858261 3.91858261,-9.77018333e-15 8.75239923,0 Z" id="path-5"></path>
        <filter x="-6.1%" y="-16.9%" width="120.1%" height="126.8%" filterUnits="objectBoundingBox" id="filter-6">
            <feMorphology radius="0.5" operator="dilate" in="SourceAlpha" result="shadowSpreadOuter1"></feMorphology>
            <feOffset dx="15" dy="-10" in="shadowSpreadOuter1" result="shadowOffsetOuter1"></feOffset>
            <feGaussianBlur stdDeviation="10" in="shadowOffsetOuter1" result="shadowBlurOuter1"></feGaussianBlur>
            <feComposite in="shadowBlurOuter1" in2="SourceAlpha" operator="out" result="shadowBlurOuter1"></feComposite>
            <feColorMatrix values="0 0 0 0 0   0 0 0 0 0   0 0 0 0 0  0 0 0 0.15 0" type="matrix" in="shadowBlurOuter1"></feColorMatrix>
        </filter>
        <linearGradient x1="0%" y1="48.2006072%" x2="91.4606182%" y2="54.7134653%" id="linearGradient-7">
            <stop stop-color="#FFFFFF" stop-opacity="0.136442171" offset="0%"></stop>
            <stop stop-color="#FFFFFF" stop-opacity="0" offset="100%"></stop>
        </linearGradient>
        <linearGradient x1="0%" y1="22.9897679%" x2="100%" y2="57.6390648%" id="linearGradient-8">
            <stop stop-color="#FFFFFF" offset="0%"></stop>
            <stop stop-color="#FFFFFF" stop-opacity="0" offset="100%"></stop>
        </linearGradient>
        <linearGradient x1="50%" y1="-37.7890389%" x2="50%" y2="99.6976412%" id="linearGradient-9">
            <stop stop-color="#FFFFFF" stop-opacity="0" offset="0%"></stop>
            <stop stop-color="#FFFFFF" stop-opacity="0.220716783" offset="100%"></stop>
        </linearGradient>
        <path d="M380,118.874942 C396.361468,118.874942 409.625058,132.138532 409.625058,148.5 C409.625058,164.861468 396.361468,178.125058 380,178.125058 C363.638532,178.125058 350.374942,164.861468 350.374942,148.5 C350.374942,132.138532 363.638532,118.874942 380,118.874942 Z M389.154189,139.152438 C384.900523,139.152438 382.038489,141.253013 382.038489,144.587678 C382.038489,151.099463 391.832423,149.077658 391.832423,152.543608 C391.832423,153.672668 390.808393,154.302841 389.101675,154.302841 C387.158642,154.302841 384.480408,153.226296 382.58989,151.545835 L380.935686,154.933013 C383.010005,156.692246 386.029583,157.847562 389.04916,157.847562 C393.119026,157.847562 396.243685,155.90453 396.243685,152.307294 C396.26989,145.69048 386.475955,147.580998 386.475955,144.19382 C386.475955,143.196046 387.421214,142.697159 388.812846,142.697159 C390.283249,142.697159 392.593882,143.432361 394.536915,144.587678 L396.138604,141.147985 C394.3006,139.940154 391.727395,139.152438 389.154189,139.152438 Z M368.219986,139.336238 L363.756262,139.336238 L370.976992,157.716276 L375.256915,157.716276 L382.556416,139.336238 L378.276493,139.336238 L373.235111,153.200038 L368.219986,139.336238 Z" id="path-10"></path>
        <filter x="-57.4%" y="-43.9%" width="214.8%" height="214.8%" filterUnits="objectBoundingBox" id="filter-11">
            <feOffset dx="0" dy="8" in="SourceAlpha" result="shadowOffsetOuter1"></feOffset>
            <feGaussianBlur stdDeviation="10" in="shadowOffsetOuter1" result="shadowBlurOuter1"></feGaussianBlur>
            <feColorMatrix values="0 0 0 0 0   0 0 0 0 0   0 0 0 0 0  0 0 0 0.3 0" type="matrix" in="shadowBlurOuter1"></feColorMatrix>
        </filter>
        <text id="text-12" font-family="Montserrat-Regular, Montserrat" font-size="22" font-weight="normal" line-spacing="30.6333973" fill="#FFFFFF">
            <tspan x="91.371" y="352.8798">You got a 12.5% increase on reviews last week alone!</tspan>
        </text>
        <filter x="-0.9%" y="-6.5%" width="101.6%" height="125.8%" filterUnits="objectBoundingBox" id="filter-13">
            <feOffset dx="0" dy="2" in="SourceAlpha" result="shadowOffsetOuter1"></feOffset>
            <feGaussianBlur stdDeviation="1" in="shadowOffsetOuter1" result="shadowBlurOuter1"></feGaussianBlur>
            <feColorMatrix values="0 0 0 0 0   0 0 0 0 0   0 0 0 0 0  0 0 0 0.15 0" type="matrix" in="shadowBlurOuter1"></feColorMatrix>
        </filter>
    </defs>
    <g id="id_0003--totalreviewsx" stroke="none" stroke-width="1" fill="none" fill-rule="evenodd">
        <g id="Group-93">
            <g id="Group-32">
                <g id="Group-29">
                    <g id="Rectangle">
                        <use fill="black" fill-opacity="1" filter="url(#filter-3)" xlink:href="#path-2"></use>
                        <use stroke-opacity="0.05" stroke="#FFFFFF" stroke-width="1.45873321" fill="url(#linearGradient-1)" fill-rule="evenodd" xlink:href="#path-2"></use>
                    </g>
                    <g style="mix-blend-mode: overlay;">
                        <g id="Rectangle">
                            <use fill="black" fill-opacity="1" filter="url(#filter-6)" xlink:href="#path-5"></use>
                            <use stroke-opacity="0.0498781004" stroke="#2EC4B6" stroke-width="1" fill="url(#radialGradient-4)" fill-rule="evenodd" xlink:href="#path-5"></use>
                        </g>
                        <path d="M193.797341,203.139879 C202.016212,208.519084 210.756234,215.329742 220.369006,222.938751 L227.167757,228.326293 C291.232934,279.044161 394.181817,356.349895 627.521406,295.47344 L636.012309,293.212623 C665.486749,285.207606 726.124782,285.545736 748.907402,316.04751 C755.97888,325.51493 759.288073,344.15359 758.834981,371.963491 L758.786099,374.404859 C758.776372,374.815607 758.765854,375.22828 758.754546,375.64288 L758.677216,378.153596 L758.677216,378.153596 L758.58092,380.710544 C758.56329,381.140555 758.54487,381.572491 758.52566,382.006355 L758.400916,384.63265 L758.400916,384.63265 L758.257206,387.305178 C758.231674,387.754451 758.205352,388.205652 758.178239,388.658778 L758.006081,391.400653 C757.975808,391.861485 757.944744,392.324243 757.91289,392.788928 L757.712284,395.600151 L757.712284,395.600151 L757.492712,398.457605 L757.492712,398.457605 L757.254175,401.361292 C757.171502,402.336893 757.085668,403.320199 756.996672,404.31121 L756.720204,407.30736 C756.672546,407.810571 756.624097,408.315709 756.574858,408.822772 L756.269941,411.88827 L756.269941,411.88827 L755.946059,415 L755.946059,415 L1.13686838e-13,415 L1.13686838e-13,287.699396 C1.13686838e-13,229.323231 54.2287612,182 121.123336,182 C147.330819,182 172.831354,189.417759 193.797341,203.139879 Z" id="Rectangle" fill="url(#linearGradient-7)" style="mix-blend-mode: overlay;"></path>
                        <g id="Group-59" opacity="0.315917969" transform="translate(273.875551, 70.500000)" fill="url(#linearGradient-8)">
                            <path d="M2.98223432,76.2315322 C18.9026246,106.433241 53.2833628,119.727986 106.124449,116.115766 C158.965535,112.503547 194.340351,106.219006 212.248897,97.262145 C207.284787,100.874364 167.878009,116.617105 94.0285645,144.490367 C20.1791196,172.363629 -10.1696571,149.610684 2.98223432,76.2315322 Z M163.192895,0 C180.154334,0 193.904298,13.7499636 193.904298,30.7114034 C193.904298,47.6728431 180.154334,61.4228067 163.192895,61.4228067 C146.231455,61.4228067 132.481491,47.6728431 132.481491,30.7114034 C132.481491,13.7499636 146.231455,0 163.192895,0 Z M42.4245875,11.1006766 C64.2079976,11.1006766 81.8669406,24.489541 81.8669406,41.0055423 L81.8669406,41.0055423 L81.8666251,41.9399165 C81.8511637,56.2874759 81.0780935,26.3615656 42.4245875,26.6926871 C3.77108138,27.0238086 2.99801126,56.3139656 2.98254986,41.9407112 L2.98223432,41.0055423 C2.98223432,24.489541 20.6411773,11.1006766 42.4245875,11.1006766 Z" id="Comzxzxbined-Shape" opacity="0.670865013"></path>
                        </g>
                    </g>
                </g>
                <g id="Group-35" transform="translate(0.000000, 14.630518)">
                    <g id="Group-40" transform="translate(98.000000, 81.989443)" fill="#FFFFFF" font-weight="500">
                        <g id="Group-41">
                            <g id="Group-38" font-family="Graphik-Semibold, Graphik" font-size="72.9366603" letter-spacing="-1.45873325">
                                <g id="Group-21">
                                    <text id="2,130">
                                        <tspan x="0.752399433" y="60">2,130</tspan>
                                    </text>
                                </g>
                            </g>
                            <text id="THIS-WEEK" font-family="Montserrat-SemiBold, Montserrat" font-size="26.2571977" letter-spacing="-0.145873323" fill-opacity="0.45">
                                <tspan x="16.5871017" y="111.065259">THIS WEEK</tspan>
                            </text>
                        </g>
                    </g>
                    <g id="Group" transform="translate(589.374942, 0.000000)" fill="#FFFFFF" fill-opacity="0.4">
                        <g>
                            <path d="M140.625058,21 C142.281912,21 143.625058,22.3431458 143.625058,24 C143.625058,25.6568542 142.281912,27 140.625058,27 C138.968204,27 137.625058,25.6568542 137.625058,24 C137.625058,22.3431458 138.968204,21 140.625058,21 Z M140.625058,11 C142.281912,11 143.625058,12.3431458 143.625058,14 C143.625058,15.6568542 142.281912,17 140.625058,17 C138.968204,17 137.625058,15.6568542 137.625058,14 C137.625058,12.3431458 138.968204,11 140.625058,11 Z M140.625058,1 C142.281912,1 143.625058,2.34314575 143.625058,4 C143.625058,5.65685425 142.281912,7 140.625058,7 C138.968204,7 137.625058,5.65685425 137.625058,4 C137.625058,2.34314575 138.968204,1 140.625058,1 Z" id="Combined-Shape"></path>
                            <path d="M112.3214,13.3449653 C112.33464,20.5075336 106.493404,26.3644428 99.3308356,26.3694784 C96.2373128,26.3716767 93.3957693,25.2933076 91.1627611,23.4910808 C90.5821129,23.0224526 90.5387097,22.1522404 91.066362,21.6245881 L91.6569699,21.0339802 C92.1082473,20.5827028 92.8286977,20.5333239 93.3286726,20.9299804 C94.9738513,22.2354822 97.055892,23.0146946 99.3214002,23.0146946 C104.652701,23.0146946 108.966545,18.7000125 108.966545,13.36955 C108.966545,8.03824871 104.651863,3.72440537 99.3214002,3.72440537 C96.7626062,3.72440537 94.4385981,4.71874639 92.7130084,6.34180407 L95.3734957,9.0022914 C95.9018819,9.53067758 95.5276608,10.4340712 94.7804766,10.4340712 L87.1601309,10.4340712 C86.6969019,10.4340712 86.3214227,10.058592 86.3214227,9.59536295 L86.3214227,1.97501727 C86.3214227,1.22783308 87.2248163,0.853611951 87.7532025,1.38194571 L90.3412464,3.96998962 C92.6751093,1.73960235 95.8382449,0.369572466 99.3214002,0.369572466 C106.49288,0.369572466 112.308116,6.17657854 112.3214,13.3449653 Z M102.838104,17.4747646 L103.353018,16.8127093 C103.779606,16.2642466 103.680796,15.4738165 103.132333,15.0472809 L100.998817,13.3878443 L100.998817,7.9179465 C100.998817,7.22312915 100.435572,6.65988416 99.7407543,6.65988416 L98.9020461,6.65988416 C98.2072287,6.65988416 97.6439837,7.22312915 97.6439837,7.9179465 L97.6439837,15.0286721 L101.072675,17.6954497 C101.621138,18.1219853 102.411516,18.0232274 102.838104,17.4747646 L102.838104,17.4747646 Z" id="Shape" fill-rule="nonzero"></path>
                            <path d="M58.0177873,0.369481766 C65.1974891,0.369481766 71.0177873,6.18978002 71.0177873,13.3694818 C71.0177873,20.5491835 65.1974891,26.3694818 58.0177873,26.3694818 C50.8380856,26.3694818 45.0177873,20.5491835 45.0177873,13.3694818 C45.0177873,6.18978002 50.8380856,0.369481766 58.0177873,0.369481766 Z M62.5348077,9.26760588 C60.6682237,9.26760588 59.4123123,10.1893757 59.4123123,11.6526854 C59.4123123,14.510172 63.7100642,13.6229685 63.7100642,15.1438887 C63.7100642,15.63934 63.2607014,15.915871 62.5117634,15.915871 C61.6591263,15.915871 60.4838697,15.443464 59.6542769,14.7060481 L58.9283831,16.192402 C59.8386308,16.9643842 61.163675,17.4713576 62.4887192,17.4713576 C64.2746483,17.4713576 65.6458041,16.6187205 65.6458041,15.0401896 C65.6573031,12.1366146 61.3595511,12.9662075 61.3595511,11.4798536 C61.3595511,11.0420129 61.7743475,10.8230925 62.3850201,10.8230925 C63.030259,10.8230925 64.0442058,11.145712 64.8968429,11.6526854 L65.5996925,10.1432873 C64.7931438,9.61326958 63.6639758,9.26760588 62.5348077,9.26760588 Z M52.3485085,9.34826075 L50.3897476,9.34826075 L53.5583315,17.413747 L55.4364376,17.413747 L58.6395878,9.34826075 L56.7614817,9.34826075 L54.5492341,15.4319418 L52.3485085,9.34826075 Z" id="Combined-Shape"></path>
                            <path d="M26.8307545,2.15105928 C23.6677925,-0.541811088 18.9378586,-0.0949338942 16.001237,2.93454527 L14.8579278,4.11847965 L13.7146187,2.94034887 C11.3467499,0.491229698 6.57038715,-0.982884683 2.8851012,2.15105928 C-0.759559552,5.26178884 -0.951078349,10.844852 2.31054481,14.2109399 L13.5405107,25.8065326 C13.9003339,26.177963 14.3762291,26.3694818 14.8521242,26.3694818 C15.3280194,26.3694818 15.8039146,26.1837666 16.1637378,25.8065326 L27.3937037,14.2109399 C30.666934,10.844852 30.4754152,5.26178884 26.8307545,2.15105928 Z M26.0704829,12.9225407 L14.8811422,24.5181334 L3.64537279,12.9225407 C1.41679042,10.6243152 0.952502426,6.24259722 4.09224999,3.56713766 C7.27262274,0.851052894 11.0101411,2.81847327 12.3797907,4.23455165 L14.8579278,6.79393922 L17.336065,4.23455165 C18.6825002,2.84168767 22.4548401,0.868463693 25.6236057,3.56713766 C28.7575497,6.23679362 28.2990653,10.6185116 26.0704829,12.9225407 Z" id="Shape" fill-rule="nonzero"></path>
                        </g>
                    </g>
                    <path d="M0,269.822457 L760,269.822457 L760,392.356046 C760,397.189863 756.081417,401.108445 751.247601,401.108445 L8.75239923,401.108445 C3.91858261,401.108445 1.83555402e-14,397.189863 0,392.356046 L0,269.822457 L0,269.822457 Z" id="Rectangle" fill="url(#linearGradient-9)"></path>
                </g>
                <g id="Combined-Shape">
                    <use fill="black" fill-opacity="1" filter="url(#filter-11)" xlink:href="#path-10"></use>
                    <use fill="#4AE4FE" fill-rule="evenodd" xlink:href="#path-10"></use>
                </g>
            </g>
            <g id="Group-40" transform="translate(459.905950, 96.403792)" fill="#FFFFFF" font-weight="500">
                <g id="Group-41">
                    <g id="Group-38" font-family="Graphik-Semibold, Graphik" font-size="72.9366603" letter-spacing="-1.45873325">
                        <g id="Group-21">
                            <text id="6,382">
                                <tspan x="0.696737244" y="60">6,382</tspan>
                            </text>
                        </g>
                    </g>
                    <text id="ALL-TIMES" font-family="Montserrat-SemiBold, Montserrat" font-size="26.2571977" letter-spacing="-0.145873323" fill-opacity="0.45">
                        <tspan x="29.3888292" y="111.065259">ALL TIMES</tspan>
                    </text>
                </g>
            </g>
        </g>
        <g id="Group" opacity="0.66577875" transform="translate(116.736264, 228.500000)">
            <path d="M14.8064128,22.8372299 L11.297718,25.4468763 C10.4858885,26.0506871 9.33828534,25.8820547 8.73447453,25.0702253 C8.37587442,24.588084 8.27651265,23.9607384 8.46857176,23.3913813 L9.86624671,19.2479892 C10.1484692,18.4113436 9.84865998,17.4886256 9.12856922,16.9776513 L5.56240165,14.4471094 C4.73727434,13.8616015 4.54302442,12.7180557 5.12853231,11.8929284 C5.4762624,11.4028896 6.04219899,11.1145305 6.64303935,11.1212485 L11.0155447,11.1701378 C11.8984535,11.1800097 12.6833644,10.6097386 12.9468095,9.76699185 L14.2514915,5.59338448 C14.5533642,4.62770989 15.5809143,4.08959216 16.5465889,4.39146489 C17.1200981,4.57074554 17.5692279,5.01987536 17.7485085,5.59338448 L19.0531905,9.76699185 C19.3166356,10.6097386 20.1015465,11.1800097 20.9844553,11.1701378 L25.3569607,11.1212485 C26.3686556,11.1099367 27.1979664,11.9209074 27.2092782,12.9326023 C27.2159963,13.5334427 26.9276372,14.0993793 26.4375984,14.4471094 L22.8714308,16.9776513 C22.15134,17.4886256 21.8515308,18.4113436 22.1337533,19.2479892 L23.5314282,23.3913813 C23.8548174,24.3500648 23.3398095,25.38939 22.381126,25.7127791 C21.8117689,25.9048382 21.1844233,25.8054764 20.702282,25.4468763 L17.1935872,22.8372299 C16.4851016,22.3102826 15.5148984,22.3102826 14.8064128,22.8372299 Z" id="Star" fill="#FFFFFF"></path>
            <path d="M42.9382809,22.8372299 L39.4295861,25.4468763 C38.6177567,26.0506871 37.4701535,25.8820547 36.8663427,25.0702253 C36.5077426,24.588084 36.4083808,23.9607384 36.6004399,23.3913813 L37.9981148,19.2479892 C38.2803374,18.4113436 37.9805281,17.4886256 37.2604374,16.9776513 L33.6942698,14.4471094 C32.8691425,13.8616015 32.6748926,12.7180557 33.2604004,11.8929284 C33.6081305,11.4028896 34.1740671,11.1145305 34.7749075,11.1212485 L39.1474129,11.1701378 C40.0303217,11.1800097 40.8152325,10.6097386 41.0786776,9.76699185 L42.3833596,5.59338448 C42.6852323,4.62770989 43.7127825,4.08959216 44.6784571,4.39146489 C45.2519662,4.57074554 45.701096,5.01987536 45.8803767,5.59338448 L47.1850587,9.76699185 C47.4485038,10.6097386 48.2334146,11.1800097 49.1163234,11.1701378 L53.4888288,11.1212485 C54.5005237,11.1099367 55.3298345,11.9209074 55.3411464,12.9326023 C55.3478644,13.5334427 55.0595053,14.0993793 54.5694665,14.4471094 L51.0032989,16.9776513 C50.2832082,17.4886256 49.9833989,18.4113436 50.2656214,19.2479892 L51.6632964,23.3913813 C51.9866855,24.3500648 51.4716776,25.38939 50.5129941,25.7127791 C49.943637,25.9048382 49.3162914,25.8054764 48.8341502,25.4468763 L45.3254554,22.8372299 C44.6169697,22.3102826 43.6467666,22.3102826 42.9382809,22.8372299 Z" id="Star" fill="#FFFFFF"></path>
            <path d="M71.070149,22.8372299 L67.5614542,25.4468763 C66.7496248,26.0506871 65.6020216,25.8820547 64.9982108,25.0702253 C64.6396107,24.588084 64.5402489,23.9607384 64.732308,23.3913813 L66.129983,19.2479892 C66.4122055,18.4113436 66.1123962,17.4886256 65.3923055,16.9776513 L61.8261379,14.4471094 C61.0010106,13.8616015 60.8067607,12.7180557 61.3922686,11.8929284 C61.7399987,11.4028896 62.3059353,11.1145305 62.9067756,11.1212485 L67.279281,11.1701378 C68.1621898,11.1800097 68.9471006,10.6097386 69.2105457,9.76699185 L70.5152277,5.59338448 C70.8171005,4.62770989 71.8446506,4.08959216 72.8103252,4.39146489 C73.3838343,4.57074554 73.8329641,5.01987536 74.0122448,5.59338448 L75.3169268,9.76699185 C75.5803719,10.6097386 76.3652827,11.1800097 77.2481915,11.1701378 L81.6206969,11.1212485 C82.6323918,11.1099367 83.4617027,11.9209074 83.4730145,12.9326023 C83.4797325,13.5334427 83.1913734,14.0993793 82.7013346,14.4471094 L79.135167,16.9776513 C78.4150763,17.4886256 78.115267,18.4113436 78.3974896,19.2479892 L79.7951645,23.3913813 C80.1185536,24.3500648 79.6035458,25.38939 78.6448623,25.7127791 C78.0755051,25.9048382 77.4481596,25.8054764 76.9660183,25.4468763 L73.4573235,22.8372299 C72.7488378,22.3102826 71.7786347,22.3102826 71.070149,22.8372299 Z" id="Star" fill="#FFFFFF"></path>
            <path d="M99.2020171,22.8372299 L95.6933224,25.4468763 C94.8814929,26.0506871 93.7338897,25.8820547 93.1300789,25.0702253 C92.7714788,24.588084 92.672117,23.9607384 92.8641762,23.3913813 L94.2618511,19.2479892 C94.5440736,18.4113436 94.2442644,17.4886256 93.5241736,16.9776513 L89.958006,14.4471094 C89.1328787,13.8616015 88.9386288,12.7180557 89.5241367,11.8929284 C89.8718668,11.4028896 90.4378034,11.1145305 91.0386437,11.1212485 L95.4111491,11.1701378 C96.2940579,11.1800097 97.0789688,10.6097386 97.3424139,9.76699185 L98.6470959,5.59338448 C98.9489686,4.62770989 99.9765187,4.08959216 100.942193,4.39146489 C101.515702,4.57074554 101.964832,5.01987536 102.144113,5.59338448 L103.448795,9.76699185 C103.71224,10.6097386 104.497151,11.1800097 105.38006,11.1701378 L109.752565,11.1212485 C110.76426,11.1099367 111.593571,11.9209074 111.604883,12.9326023 C111.611601,13.5334427 111.323242,14.0993793 110.833203,14.4471094 L107.267035,16.9776513 C106.546944,17.4886256 106.247135,18.4113436 106.529358,19.2479892 L107.927033,23.3913813 C108.250422,24.3500648 107.735414,25.38939 106.77673,25.7127791 C106.207373,25.9048382 105.580028,25.8054764 105.097886,25.4468763 L101.589192,22.8372299 C100.880706,22.3102826 99.9105028,22.3102826 99.2020171,22.8372299 Z" id="Star" fill="#000000" opacity="0.55821882"></path>
            <path d="M127.333885,22.8372299 L123.825191,25.4468763 C123.013361,26.0506871 121.865758,25.8820547 121.261947,25.0702253 C120.903347,24.588084 120.803985,23.9607384 120.996044,23.3913813 L122.393719,19.2479892 C122.675942,18.4113436 122.376133,17.4886256 121.656042,16.9776513 L118.089874,14.4471094 C117.264747,13.8616015 117.070497,12.7180557 117.656005,11.8929284 C118.003735,11.4028896 118.569672,11.1145305 119.170512,11.1212485 L123.543017,11.1701378 C124.425926,11.1800097 125.210837,10.6097386 125.474282,9.76699185 L126.778964,5.59338448 C127.080837,4.62770989 128.108387,4.08959216 129.074061,4.39146489 C129.647571,4.57074554 130.0967,5.01987536 130.275981,5.59338448 L131.580663,9.76699185 C131.844108,10.6097386 132.629019,11.1800097 133.511928,11.1701378 L137.884433,11.1212485 C138.896128,11.1099367 139.725439,11.9209074 139.736751,12.9326023 C139.743469,13.5334427 139.45511,14.0993793 138.965071,14.4471094 L135.398903,16.9776513 C134.678813,17.4886256 134.379003,18.4113436 134.661226,19.2479892 L136.058901,23.3913813 C136.38229,24.3500648 135.867282,25.38939 134.908599,25.7127791 C134.339241,25.9048382 133.711896,25.8054764 133.229755,25.4468763 L129.72106,22.8372299 C129.012574,22.3102826 128.042371,22.3102826 127.333885,22.8372299 Z" id="Star" fill="#000000" opacity="0.55821882"></path>
        </g>
        <g id="Group" opacity="0.66577875" transform="translate(484.142214, 228.500000)">
            <path d="M14.8064128,22.8372299 L11.297718,25.4468763 C10.4858885,26.0506871 9.33828534,25.8820547 8.73447453,25.0702253 C8.37587442,24.588084 8.27651265,23.9607384 8.46857176,23.3913813 L9.86624671,19.2479892 C10.1484692,18.4113436 9.84865998,17.4886256 9.12856922,16.9776513 L5.56240165,14.4471094 C4.73727434,13.8616015 4.54302442,12.7180557 5.12853231,11.8929284 C5.4762624,11.4028896 6.04219899,11.1145305 6.64303935,11.1212485 L11.0155447,11.1701378 C11.8984535,11.1800097 12.6833644,10.6097386 12.9468095,9.76699185 L14.2514915,5.59338448 C14.5533642,4.62770989 15.5809143,4.08959216 16.5465889,4.39146489 C17.1200981,4.57074554 17.5692279,5.01987536 17.7485085,5.59338448 L19.0531905,9.76699185 C19.3166356,10.6097386 20.1015465,11.1800097 20.9844553,11.1701378 L25.3569607,11.1212485 C26.3686556,11.1099367 27.1979664,11.9209074 27.2092782,12.9326023 C27.2159963,13.5334427 26.9276372,14.0993793 26.4375984,14.4471094 L22.8714308,16.9776513 C22.15134,17.4886256 21.8515308,18.4113436 22.1337533,19.2479892 L23.5314282,23.3913813 C23.8548174,24.3500648 23.3398095,25.38939 22.381126,25.7127791 C21.8117689,25.9048382 21.1844233,25.8054764 20.702282,25.4468763 L17.1935872,22.8372299 C16.4851016,22.3102826 15.5148984,22.3102826 14.8064128,22.8372299 Z" id="Star" fill="#FFFFFF"></path>
            <path d="M42.9382809,22.8372299 L39.4295861,25.4468763 C38.6177567,26.0506871 37.4701535,25.8820547 36.8663427,25.0702253 C36.5077426,24.588084 36.4083808,23.9607384 36.6004399,23.3913813 L37.9981148,19.2479892 C38.2803374,18.4113436 37.9805281,17.4886256 37.2604374,16.9776513 L33.6942698,14.4471094 C32.8691425,13.8616015 32.6748926,12.7180557 33.2604004,11.8929284 C33.6081305,11.4028896 34.1740671,11.1145305 34.7749075,11.1212485 L39.1474129,11.1701378 C40.0303217,11.1800097 40.8152325,10.6097386 41.0786776,9.76699185 L42.3833596,5.59338448 C42.6852323,4.62770989 43.7127825,4.08959216 44.6784571,4.39146489 C45.2519662,4.57074554 45.701096,5.01987536 45.8803767,5.59338448 L47.1850587,9.76699185 C47.4485038,10.6097386 48.2334146,11.1800097 49.1163234,11.1701378 L53.4888288,11.1212485 C54.5005237,11.1099367 55.3298345,11.9209074 55.3411464,12.9326023 C55.3478644,13.5334427 55.0595053,14.0993793 54.5694665,14.4471094 L51.0032989,16.9776513 C50.2832082,17.4886256 49.9833989,18.4113436 50.2656214,19.2479892 L51.6632964,23.3913813 C51.9866855,24.3500648 51.4716776,25.38939 50.5129941,25.7127791 C49.943637,25.9048382 49.3162914,25.8054764 48.8341502,25.4468763 L45.3254554,22.8372299 C44.6169697,22.3102826 43.6467666,22.3102826 42.9382809,22.8372299 Z" id="Star" fill="#FFFFFF"></path>
            <path d="M71.070149,22.8372299 L67.5614542,25.4468763 C66.7496248,26.0506871 65.6020216,25.8820547 64.9982108,25.0702253 C64.6396107,24.588084 64.5402489,23.9607384 64.732308,23.3913813 L66.129983,19.2479892 C66.4122055,18.4113436 66.1123962,17.4886256 65.3923055,16.9776513 L61.8261379,14.4471094 C61.0010106,13.8616015 60.8067607,12.7180557 61.3922686,11.8929284 C61.7399987,11.4028896 62.3059353,11.1145305 62.9067756,11.1212485 L67.279281,11.1701378 C68.1621898,11.1800097 68.9471006,10.6097386 69.2105457,9.76699185 L70.5152277,5.59338448 C70.8171005,4.62770989 71.8446506,4.08959216 72.8103252,4.39146489 C73.3838343,4.57074554 73.8329641,5.01987536 74.0122448,5.59338448 L75.3169268,9.76699185 C75.5803719,10.6097386 76.3652827,11.1800097 77.2481915,11.1701378 L81.6206969,11.1212485 C82.6323918,11.1099367 83.4617027,11.9209074 83.4730145,12.9326023 C83.4797325,13.5334427 83.1913734,14.0993793 82.7013346,14.4471094 L79.135167,16.9776513 C78.4150763,17.4886256 78.115267,18.4113436 78.3974896,19.2479892 L79.7951645,23.3913813 C80.1185536,24.3500648 79.6035458,25.38939 78.6448623,25.7127791 C78.0755051,25.9048382 77.4481596,25.8054764 76.9660183,25.4468763 L73.4573235,22.8372299 C72.7488378,22.3102826 71.7786347,22.3102826 71.070149,22.8372299 Z" id="Star" fill="#FFFFFF"></path>
            <path d="M99.2020171,22.8372299 L95.6933224,25.4468763 C94.8814929,26.0506871 93.7338897,25.8820547 93.1300789,25.0702253 C92.7714788,24.588084 92.672117,23.9607384 92.8641762,23.3913813 L94.2618511,19.2479892 C94.5440736,18.4113436 94.2442644,17.4886256 93.5241736,16.9776513 L89.958006,14.4471094 C89.1328787,13.8616015 88.9386288,12.7180557 89.5241367,11.8929284 C89.8718668,11.4028896 90.4378034,11.1145305 91.0386437,11.1212485 L95.4111491,11.1701378 C96.2940579,11.1800097 97.0789688,10.6097386 97.3424139,9.76699185 L98.6470959,5.59338448 C98.9489686,4.62770989 99.9765187,4.08959216 100.942193,4.39146489 C101.515702,4.57074554 101.964832,5.01987536 102.144113,5.59338448 L103.448795,9.76699185 C103.71224,10.6097386 104.497151,11.1800097 105.38006,11.1701378 L109.752565,11.1212485 C110.76426,11.1099367 111.593571,11.9209074 111.604883,12.9326023 C111.611601,13.5334427 111.323242,14.0993793 110.833203,14.4471094 L107.267035,16.9776513 C106.546944,17.4886256 106.247135,18.4113436 106.529358,19.2479892 L107.927033,23.3913813 C108.250422,24.3500648 107.735414,25.38939 106.77673,25.7127791 C106.207373,25.9048382 105.580028,25.8054764 105.097886,25.4468763 L101.589192,22.8372299 C100.880706,22.3102826 99.9105028,22.3102826 99.2020171,22.8372299 Z" id="Star" fill="#FFFFFF" opacity="0.55821882"></path>
            <path d="M127.333885,22.8372299 L123.825191,25.4468763 C123.013361,26.0506871 121.865758,25.8820547 121.261947,25.0702253 C120.903347,24.588084 120.803985,23.9607384 120.996044,23.3913813 L122.393719,19.2479892 C122.675942,18.4113436 122.376133,17.4886256 121.656042,16.9776513 L118.089874,14.4471094 C117.264747,13.8616015 117.070497,12.7180557 117.656005,11.8929284 C118.003735,11.4028896 118.569672,11.1145305 119.170512,11.1212485 L123.543017,11.1701378 C124.425926,11.1800097 125.210837,10.6097386 125.474282,9.76699185 L126.778964,5.59338448 C127.080837,4.62770989 128.108387,4.08959216 129.074061,4.39146489 C129.647571,4.57074554 130.0967,5.01987536 130.275981,5.59338448 L131.580663,9.76699185 C131.844108,10.6097386 132.629019,11.1800097 133.511928,11.1701378 L137.884433,11.1212485 C138.896128,11.1099367 139.725439,11.9209074 139.736751,12.9326023 C139.743469,13.5334427 139.45511,14.0993793 138.965071,14.4471094 L135.398903,16.9776513 C134.678813,17.4886256 134.379003,18.4113436 134.661226,19.2479892 L136.058901,23.3913813 C136.38229,24.3500648 135.867282,25.38939 134.908599,25.7127791 C134.339241,25.9048382 133.711896,25.8054764 133.229755,25.4468763 L129.72106,22.8372299 C129.012574,22.3102826 128.042371,22.3102826 127.333885,22.8372299 Z" id="Star" fill="#000000" opacity="0.55821882"></path>
        </g>
        <text id="6-DAYS-AGO" font-family="Montserrat-Regular, Montserrat" font-size="9" font-weight="normal" line-spacing="21" letter-spacing="-0.09" fill="#FFFFFF">
            <tspan x="352.4375" y="393.738964">6 DAYS AGO</tspan>
        </text>
        <text id="TOTAL-REVIEWS" font-family="Montserrat-SemiBold, Montserrat" font-size="30" font-weight="500" letter-spacing="-0.166666669" fill="#FFFFFF">
            <tspan x="257.768333" y="51">TOTAL REVIEWS</tspan>
        </text>
        <g id="You-got-a-12.5%-incr" fill="#FFFFFF" fill-opacity="1">
            <use filter="url(#filter-13)" xlink:href="#text-12"></use>
            <use xlink:href="#text-12"></use>
        </g>
    </g>
</svg>