<?xml version="1.0" encoding="UTF-8"?>
<svg width="760px" height="415px" viewBox="0 0 760 415" version="1.1" xmlns="http://www.w3.org/2000/svg" xmlns:xlink="http://www.w3.org/1999/xlink">
    <title>id_0013--engagements-achievement</title>
    <defs>
        <radialGradient cx="50%" cy="0%" fx="50%" fy="0%" r="99.6976412%" gradientTransform="translate(0.500000,0.000000),scale(0.547269,1.000000),rotate(90.000000),scale(1.000000,1.615451),translate(-0.500000,-0.000000)" id="radialGradient-1">
            <stop stop-color="#FFFFFF" stop-opacity="0.260492925" offset="0%"></stop>
            <stop stop-color="#2EC4B6" stop-opacity="0" offset="100%"></stop>
        </radialGradient>
        <rect id="path-2" x="0.00080355824" y="0.000641872588" width="759.661622" height="415.738964" rx="8.75239923"></rect>
        <filter x="-6.2%" y="-10.8%" width="112.3%" height="122.5%" filterUnits="objectBoundingBox" id="filter-3">
            <feMorphology radius="0.729366603" operator="dilate" in="SourceAlpha" result="shadowSpreadOuter1"></feMorphology>
            <feOffset dx="0" dy="2" in="shadowSpreadOuter1" result="shadowOffsetOuter1"></feOffset>
            <feGaussianBlur stdDeviation="15" in="shadowOffsetOuter1" result="shadowBlurOuter1"></feGaussianBlur>
            <feComposite in="shadowBlurOuter1" in2="SourceAlpha" operator="out" result="shadowBlurOuter1"></feComposite>
            <feColorMatrix values="0 0 0 0 0   0 0 0 0 0   0 0 0 0 0  0 0 0 0.15 0" type="matrix" in="shadowBlurOuter1"></feColorMatrix>
        </filter>
        <linearGradient x1="50%" y1="100%" x2="50%" y2="2.77555756e-15%" id="linearGradient-4">
            <stop stop-color="#E20C38" offset="0%"></stop>
            <stop stop-color="#FE9E60" offset="100%"></stop>
        </linearGradient>
        <linearGradient x1="50%" y1="0%" x2="50%" y2="73.3940142%" id="linearGradient-5">
            <stop stop-color="#FFFFFF" stop-opacity="0.152220826" offset="0%"></stop>
            <stop stop-color="#FFFFFF" stop-opacity="0" offset="100%"></stop>
        </linearGradient>
        <linearGradient x1="50%" y1="0%" x2="50%" y2="72.2903363%" id="linearGradient-6">
            <stop stop-color="#FFFFFF" stop-opacity="0.152220826" offset="0%"></stop>
            <stop stop-color="#FFFFFF" stop-opacity="0" offset="100%"></stop>
        </linearGradient>
        <linearGradient x1="50%" y1="0%" x2="50%" y2="100%" id="linearGradient-7">
            <stop stop-color="#EEEEEE" stop-opacity="0" offset="0%"></stop>
            <stop stop-color="#FFFFFF" offset="100%"></stop>
        </linearGradient>
        <filter x="-10.9%" y="-26.1%" width="121.9%" height="152.2%" filterUnits="objectBoundingBox" id="filter-8">
            <feOffset dx="0" dy="0" in="SourceAlpha" result="shadowOffsetOuter1"></feOffset>
            <feGaussianBlur stdDeviation="11.5" in="shadowOffsetOuter1" result="shadowBlurOuter1"></feGaussianBlur>
            <feColorMatrix values="0 0 0 0 0.785325202   0 0 0 0 0.116116235   0 0 0 0 0.127208096  0 0 0 0.278880299 0" type="matrix" in="shadowBlurOuter1" result="shadowMatrixOuter1"></feColorMatrix>
            <feMerge>
                <feMergeNode in="shadowMatrixOuter1"></feMergeNode>
                <feMergeNode in="SourceGraphic"></feMergeNode>
            </feMerge>
        </filter>
        <linearGradient x1="50%" y1="100%" x2="50%" y2="0%" id="linearGradient-9">
            <stop stop-color="#FFFFFF" stop-opacity="0" offset="0%"></stop>
            <stop stop-color="#FFFFFF" offset="100%"></stop>
        </linearGradient>
        <linearGradient x1="50%" y1="100%" x2="50%" y2="0%" id="linearGradient-10">
            <stop stop-color="#FFFFFF" stop-opacity="0" offset="0%"></stop>
            <stop stop-color="#FFFFFF" offset="100%"></stop>
        </linearGradient>
        <linearGradient x1="50%" y1="100%" x2="50%" y2="0%" id="linearGradient-11">
            <stop stop-color="#FFFFFF" stop-opacity="0" offset="0%"></stop>
            <stop stop-color="#FFFFFF" offset="100%"></stop>
        </linearGradient>
        <linearGradient x1="50%" y1="100%" x2="50%" y2="0%" id="linearGradient-12">
            <stop stop-color="#FFFFFF" stop-opacity="0" offset="0%"></stop>
            <stop stop-color="#FFFFFF" offset="100%"></stop>
        </linearGradient>
        <linearGradient x1="50%" y1="100%" x2="50%" y2="0%" id="linearGradient-13">
            <stop stop-color="#FFFFFF" stop-opacity="0" offset="0%"></stop>
            <stop stop-color="#FFFFFF" offset="100%"></stop>
        </linearGradient>
        <linearGradient x1="94.578892%" y1="30.1738941%" x2="26.8798934%" y2="75.0788858%" id="linearGradient-14">
            <stop stop-color="#EEEEEE" stop-opacity="0" offset="0%"></stop>
            <stop stop-color="#FFFFFF" offset="100%"></stop>
        </linearGradient>
        <linearGradient x1="94.578892%" y1="34.320773%" x2="26.8798934%" y2="69.8333221%" id="linearGradient-15">
            <stop stop-color="#EEEEEE" stop-opacity="0" offset="0%"></stop>
            <stop stop-color="#FFFFFF" offset="100%"></stop>
        </linearGradient>
        <linearGradient x1="95.9937696%" y1="100%" x2="7.07310721%" y2="100%" id="linearGradient-16">
            <stop stop-color="#FFFFFF" offset="0%"></stop>
            <stop stop-color="#EEEEEE" stop-opacity="0" offset="100%"></stop>
        </linearGradient>
    </defs>
    <g id="id_0013--engagements-achievement" stroke="none" stroke-width="1" fill="none" fill-rule="evenodd">
        <g id="Group-135">
            <g id="Group-129">
                <g id="Group-98" transform="translate(0.000000, 0.542862)">
                    <g id="Group-32">
                        <g id="Group-29">
                            <g id="Rectangle">
                                <use fill="black" fill-opacity="1" filter="url(#filter-3)" xlink:href="#path-2"></use>
                                <use stroke-opacity="0.05" stroke="#FFFFFF" stroke-width="1.45873321" fill="url(#radialGradient-1)" fill-rule="evenodd" xlink:href="#path-2"></use>
                            </g>
                            <rect id="Mask" fill="url(#linearGradient-4)" opacity="0.889362154" x="0.00080355824" y="0" width="760" height="415.738964" rx="8.75239923"></rect>
                            <path d="M0,154.037292 L329.070443,286.275482 L322.927152,286.275482 L0,170.078292 L0,154.037292 Z M0,121.187292 L338.347689,286.275482 L332.204398,286.275482 L0,144.318292 L0,121.187292 Z M0,70.4302918 L347.624935,286.275482 L341.481645,286.275482 L0,106.662292 L0,70.4302918 Z M21.8349068,0.275481766 L356.902181,286.275482 L350.758891,286.275482 L0,46.3972918 L0.00080355824,8.75239923 C0.00080355824,4.67359783 2.79086511,1.24645023 6.56658784,0.2753568 L21.8349068,0.275481766 Z M156.656978,0.275481766 L366.179427,286.275482 L360.036137,286.275482 L67.3792853,0.275481766 L156.656978,0.275481766 Z M291.479049,0.275481766 L375.456673,286.275482 L369.313383,286.275482 L202.201357,0.275481766 L291.479049,0.275481766 Z M426.301121,0.275481766 L384.73392,286.275482 L378.590629,286.275482 L337.023428,0.275481766 L426.301121,0.275481766 Z M561.123192,0.275481766 L394.011166,286.275482 L387.867875,286.275482 L471.845499,0.275481766 L561.123192,0.275481766 Z M695.945263,0.275481766 L403.288412,286.275482 L397.145121,286.275482 L606.667571,0.275481766 L695.945263,0.275481766 Z M760.000804,8.75239923 L760,48.6712918 L412.565658,286.275482 L406.422368,286.275482 L741.489642,0.275481766 L753.434766,0.275291782 C757.210617,1.24629725 760.000804,4.6735068 760.000804,8.75239923 Z M760,72.4942918 L760,108.411292 L421.842904,286.275482 L415.699614,286.275482 L760,72.4942918 Z M760,122.809292 L760,145.739292 L431.12015,286.275482 L424.97686,286.275482 L760,122.809292 Z M760,155.373292 L760,171.275292 L440.397396,286.275482 L434.254106,286.275482 L760,155.373292 Z" id="Combined-Shape" fill="url(#linearGradient-5)" opacity="0.553654262" style="mix-blend-mode: overlay;"></path>
                            <path d="M0,283.500774 L329.070443,415.738964 L322.927152,415.738964 L0,299.541774 L0,283.500774 Z M0,250.650774 L338.347689,415.738964 L332.204398,415.738964 L0,273.781774 L0,250.650774 Z M0,199.893774 L347.624935,415.738964 L341.481645,415.738964 L0,236.125774 L0,199.893774 Z M21.8349068,129.738964 L356.902181,415.738964 L350.758891,415.738964 L0,175.860774 L0.00080355824,138.215881 C0.00080355824,134.13708 2.79086511,130.709932 6.56658784,129.738839 L21.8349068,129.738964 Z M156.656978,129.738964 L366.179427,415.738964 L360.036137,415.738964 L67.3792853,129.738964 L156.656978,129.738964 Z M291.479049,129.738964 L375.456673,415.738964 L369.313383,415.738964 L202.201357,129.738964 L291.479049,129.738964 Z M426.301121,129.738964 L384.73392,415.738964 L378.590629,415.738964 L337.023428,129.738964 L426.301121,129.738964 Z M561.123192,129.738964 L394.011166,415.738964 L387.867875,415.738964 L471.845499,129.738964 L561.123192,129.738964 Z M695.945263,129.738964 L403.288412,415.738964 L397.145121,415.738964 L606.667571,129.738964 L695.945263,129.738964 Z M760.000804,138.215881 L760,178.134774 L412.565658,415.738964 L406.422368,415.738964 L741.489642,129.738964 L753.434766,129.738774 C757.210617,130.709779 760.000804,134.136989 760.000804,138.215881 Z M760,201.957774 L760,237.874774 L421.842904,415.738964 L415.699614,415.738964 L760,201.957774 Z M760,252.272774 L760,275.202774 L431.12015,415.738964 L424.97686,415.738964 L760,252.272774 Z M760,284.836774 L760,300.738774 L440.397396,415.738964 L434.254106,415.738964 L760,284.836774 Z" id="Combined-Shape" fill="url(#linearGradient-6)" opacity="0.553654262" style="mix-blend-mode: overlay;" transform="translate(380.000402, 272.738869) scale(1, -1) translate(-380.000402, -272.738869) "></path>
                        </g>
                        <g id="Group-105" transform="translate(44.000804, 33.406000)"></g>
                    </g>
                    <polygon id="Path-16" fill="url(#linearGradient-7)" opacity="0.392719087" style="mix-blend-mode: overlay;" points="445.246156 5.3698027 200.500402 247.786562 348.891296 247.786562 275.545848 400.369803 549.500402 176.177709 380.159385 176.177709"></polygon>
                </g>
                <g id="Group-131" transform="translate(176.500402, 49.294249)" fill="#FFFFFF" font-weight="500">
                    <text id="You’ve-reached-your" opacity="0.620477586" font-family="Montserrat-SemiBold, Montserrat" font-size="21">
                        <tspan x="73.426" y="76.5205704">You’ve reached your first</tspan>
                    </text>
                    <text id="Congratulations!" font-family="Montserrat-SemiBold, Montserrat" font-size="40">
                        <tspan x="35.76" y="39">Congratulations!</tspan>
                    </text>
                    <g id="Group-122" filter="url(#filter-8)" transform="translate(0.000000, 90.115212)" fill-rule="nonzero">
                        <text id="1000" font-family="Graphik-Semibold, Graphik" font-size="110" letter-spacing="-2">
                            <tspan x="66.15" y="90">1000</tspan>
                        </text>
                        <text id="ENGAGEMENTS" font-family="Montserrat-SemiBold, Montserrat" font-size="51">
                            <tspan x="0.4435" y="157.5">ENGAGEMENTS</tspan>
                        </text>
                    </g>
                </g>
                <g id="Group-128" opacity="0.373673212" style="mix-blend-mode: overlay;" transform="translate(53.279516, 156.127660) rotate(-244.000000) translate(-53.279516, -156.127660) translate(46.404365, 119.627660)">
                    <circle id="Oval" fill="#D8D8D8" opacity="0.492075602" cx="6.87515195" cy="6.87515195" r="6.87515195"></circle>
                    <path d="M6.87515195,73 C11.4585866,31.448129 13.7503039,9.40651299 13.7503039,6.87515195 C13.7503039,3.07811037 10.6721935,-1.13686838e-13 6.87515195,-1.13686838e-13 C3.07811037,-1.13686838e-13 4.54747351e-13,3.07811037 4.54747351e-13,6.87515195 C4.54747351e-13,9.40651299 2.29171732,31.448129 6.87515195,73 Z" id="Oval" fill="url(#linearGradient-9)" opacity="0.278164818"></path>
                </g>
                <g id="Group-128" opacity="0.262728737" transform="translate(612.505586, 214.233866) scale(-1, 1) rotate(-270.000000) translate(-612.505586, -214.233866) translate(605.630434, 177.733866)">
                    <circle id="Oval" fill="#D8D8D8" opacity="0.492075602" cx="6.87515195" cy="6.87515195" r="6.87515195"></circle>
                    <path d="M6.87515195,73 C11.4585866,31.448129 13.7503039,9.40651299 13.7503039,6.87515195 C13.7503039,3.07811037 10.6721935,-1.13686838e-13 6.87515195,-1.13686838e-13 C3.07811037,-1.13686838e-13 4.54747351e-13,3.07811037 4.54747351e-13,6.87515195 C4.54747351e-13,9.40651299 2.29171732,31.448129 6.87515195,73 Z" id="Oval" fill="url(#linearGradient-9)" opacity="0.278164818"></path>
                </g>
                <g id="Group-128" opacity="0.713724772" style="mix-blend-mode: overlay;" transform="translate(156.279516, 87.396507) rotate(-224.000000) translate(-156.279516, -87.396507) translate(149.404365, 50.896507)">
                    <circle id="Oval" fill="#D8D8D8" opacity="0.492075602" cx="6.87515195" cy="6.87515195" r="6.87515195"></circle>
                    <path d="M6.87515195,73 C11.4585866,31.448129 13.7503039,9.40651299 13.7503039,6.87515195 C13.7503039,3.07811037 10.6721935,-1.13686838e-13 6.87515195,-1.13686838e-13 C3.07811037,-1.13686838e-13 4.54747351e-13,3.07811037 4.54747351e-13,6.87515195 C4.54747351e-13,9.40651299 2.29171732,31.448129 6.87515195,73 Z" id="Oval" fill="url(#linearGradient-9)" opacity="0.278164818"></path>
                </g>
                <g id="Group-128" opacity="0.50542341" style="mix-blend-mode: overlay;" transform="translate(491.102301, 364.108334) rotate(-22.000000) translate(-491.102301, -364.108334) translate(486.675834, 340.608334)">
                    <circle id="Oval" fill="#D8D8D8" opacity="0.492075602" cx="4.42646769" cy="4.42646769" r="4.42646769"></circle>
                    <path d="M4.42646769,47 C7.37744615,20.2474255 8.85293538,6.05624809 8.85293538,4.42646769 C8.85293538,1.98179709 6.87113829,0 4.42646769,0 C1.98179709,0 6.82121026e-13,1.98179709 6.82121026e-13,4.42646769 C6.82121026e-13,6.05624809 1.47548923,20.2474255 4.42646769,47 Z" id="Oval" fill="url(#linearGradient-10)" opacity="0.278164818"></path>
                </g>
                <g id="Group-128" opacity="0.365099226" style="mix-blend-mode: overlay;" transform="translate(284.563387, 289.026687) scale(-1, 1) rotate(-30.000000) translate(-284.563387, -289.026687) translate(280.640054, 268.197814)">
                    <circle id="Oval" fill="#D8D8D8" opacity="0.492075602" cx="3.92333337" cy="3.92333337" r="3.92333337"></circle>
                    <path d="M3.92333337,41.6577464 C6.53888895,17.9460025 7.84666674,5.36786483 7.84666674,3.92333337 C7.84666674,1.75653618 6.09013056,0 3.92333337,0 C1.75653618,0 3.41060513e-13,1.75653618 3.41060513e-13,3.92333337 C3.41060513e-13,5.36786483 1.30777779,17.9460025 3.92333337,41.6577464 Z" id="Oval" fill="url(#linearGradient-11)" opacity="0.278164818"></path>
                </g>
                <g id="Group-128" opacity="0.3668489" transform="translate(703.713471, 83.428291) rotate(-129.000000) translate(-703.713471, -83.428291) translate(697.681268, 35.428291)">
                    <circle id="Oval" fill="#D8D8D8" opacity="0.492075602" cx="6.03220291" cy="6.03220291" r="6.03220291"></circle>
                    <path d="M2.02152761,96 C8.71677975,38.2424644 12.0644058,8.25319869 12.0644058,6.03220291 C12.0644058,2.70070923 9.36369658,2.27373675e-13 6.03220291,2.27373675e-13 C2.70070923,2.27373675e-13 0,2.70070923 0,6.03220291 C0,8.25319869 0.673842538,38.2424644 2.02152761,96 Z" id="Oval" fill="url(#linearGradient-12)" opacity="0.278164818"></path>
                </g>
                <g id="Group-128" opacity="0.178571429" transform="translate(596.393608, 51.633717) rotate(-138.000000) translate(-596.393608, -51.633717) translate(586.975592, -9.366283)">
                    <circle id="Oval" fill="#D8D8D8" opacity="0.492075602" cx="9.41801636" cy="9.41801636" r="9.41801636"></circle>
                    <path d="M7.29624315,122 C14.5778805,49.7741104 18.2186991,12.0410047 18.2186991,8.80068276 C18.2186991,3.94019989 14.2784992,2.27373675e-13 9.41801636,2.27373675e-13 C4.55753349,2.27373675e-13 0.6173336,3.94019989 0.6173336,8.80068276 C0.6173336,12.0410047 2.84363678,49.7741104 7.29624315,122 Z" id="Oval" fill="url(#linearGradient-13)" opacity="0.278164818"></path>
                </g>
                <path d="M2.27373675e-13,368.250424 L225.014755,255.922176 L120.858665,415.282467 L13,415.282467 C5.82029825,415.282467 2.42418719e-13,409.462169 2.27373675e-13,402.282467 L2.27373675e-13,368.250424 L2.27373675e-13,368.250424 Z" id="Path-15" fill="url(#linearGradient-14)" opacity="0.246352423" style="mix-blend-mode: overlay;"></path>
                <polygon id="Path-15" fill="url(#linearGradient-15)" opacity="0.351858956" style="mix-blend-mode: overlay;" transform="translate(600.312411, 323.529249) scale(-1, 1) translate(-600.312411, -323.529249) " points="584.028272 375.222039 682.388611 271.836459 518.236211 349.671013"></polygon>
                <polygon id="Path-15" fill="url(#linearGradient-16)" opacity="0.155251639" style="mix-blend-mode: overlay;" transform="translate(38.832974, 208.027330) scale(-1, -1) rotate(-180.000000) translate(-38.832974, -208.027330) " points="5.33772566 202.02733 72.3282228 210.468984 15.0033621 214.02733"></polygon>
                <g id="Group" transform="translate(585.713471, 14.171101)" fill="#FFFFFF" fill-opacity="0.4">
                    <g>
                        <path d="M140.625058,21 C142.281912,21 143.625058,22.3431458 143.625058,24 C143.625058,25.6568542 142.281912,27 140.625058,27 C138.968204,27 137.625058,25.6568542 137.625058,24 C137.625058,22.3431458 138.968204,21 140.625058,21 Z M140.625058,11 C142.281912,11 143.625058,12.3431458 143.625058,14 C143.625058,15.6568542 142.281912,17 140.625058,17 C138.968204,17 137.625058,15.6568542 137.625058,14 C137.625058,12.3431458 138.968204,11 140.625058,11 Z M140.625058,1 C142.281912,1 143.625058,2.34314575 143.625058,4 C143.625058,5.65685425 142.281912,7 140.625058,7 C138.968204,7 137.625058,5.65685425 137.625058,4 C137.625058,2.34314575 138.968204,1 140.625058,1 Z" id="Combined-Shape"></path>
                        <path d="M112.3214,13.3449653 C112.33464,20.5075336 106.493404,26.3644428 99.3308356,26.3694784 C96.2373128,26.3716767 93.3957693,25.2933076 91.1627611,23.4910808 C90.5821129,23.0224526 90.5387097,22.1522404 91.066362,21.6245881 L91.6569699,21.0339802 C92.1082473,20.5827028 92.8286977,20.5333239 93.3286726,20.9299804 C94.9738513,22.2354822 97.055892,23.0146946 99.3214002,23.0146946 C104.652701,23.0146946 108.966545,18.7000125 108.966545,13.36955 C108.966545,8.03824871 104.651863,3.72440537 99.3214002,3.72440537 C96.7626062,3.72440537 94.4385981,4.71874639 92.7130084,6.34180407 L95.3734957,9.0022914 C95.9018819,9.53067758 95.5276608,10.4340712 94.7804766,10.4340712 L87.1601309,10.4340712 C86.6969019,10.4340712 86.3214227,10.058592 86.3214227,9.59536295 L86.3214227,1.97501727 C86.3214227,1.22783308 87.2248163,0.853611951 87.7532025,1.38194571 L90.3412464,3.96998962 C92.6751093,1.73960235 95.8382449,0.369572466 99.3214002,0.369572466 C106.49288,0.369572466 112.308116,6.17657854 112.3214,13.3449653 Z M102.838104,17.4747646 L103.353018,16.8127093 C103.779606,16.2642466 103.680796,15.4738165 103.132333,15.0472809 L100.998817,13.3878443 L100.998817,7.9179465 C100.998817,7.22312915 100.435572,6.65988416 99.7407543,6.65988416 L98.9020461,6.65988416 C98.2072287,6.65988416 97.6439837,7.22312915 97.6439837,7.9179465 L97.6439837,15.0286721 L101.072675,17.6954497 C101.621138,18.1219853 102.411516,18.0232274 102.838104,17.4747646 L102.838104,17.4747646 Z" id="Shape" fill-rule="nonzero"></path>
                        <path d="M58.0177873,0.369481766 C65.1974891,0.369481766 71.0177873,6.18978002 71.0177873,13.3694818 C71.0177873,20.5491835 65.1974891,26.3694818 58.0177873,26.3694818 C50.8380856,26.3694818 45.0177873,20.5491835 45.0177873,13.3694818 C45.0177873,6.18978002 50.8380856,0.369481766 58.0177873,0.369481766 Z M62.5348077,9.26760588 C60.6682237,9.26760588 59.4123123,10.1893757 59.4123123,11.6526854 C59.4123123,14.510172 63.7100642,13.6229685 63.7100642,15.1438887 C63.7100642,15.63934 63.2607014,15.915871 62.5117634,15.915871 C61.6591263,15.915871 60.4838697,15.443464 59.6542769,14.7060481 L58.9283831,16.192402 C59.8386308,16.9643842 61.163675,17.4713576 62.4887192,17.4713576 C64.2746483,17.4713576 65.6458041,16.6187205 65.6458041,15.0401896 C65.6573031,12.1366146 61.3595511,12.9662075 61.3595511,11.4798536 C61.3595511,11.0420129 61.7743475,10.8230925 62.3850201,10.8230925 C63.030259,10.8230925 64.0442058,11.145712 64.8968429,11.6526854 L65.5996925,10.1432873 C64.7931438,9.61326958 63.6639758,9.26760588 62.5348077,9.26760588 Z M52.3485085,9.34826075 L50.3897476,9.34826075 L53.5583315,17.413747 L55.4364376,17.413747 L58.6395878,9.34826075 L56.7614817,9.34826075 L54.5492341,15.4319418 L52.3485085,9.34826075 Z" id="Combined-Shape"></path>
                        <path d="M26.8307545,2.15105928 C23.6677925,-0.541811088 18.9378586,-0.0949338942 16.001237,2.93454527 L14.8579278,4.11847965 L13.7146187,2.94034887 C11.3467499,0.491229698 6.57038715,-0.982884683 2.8851012,2.15105928 C-0.759559552,5.26178884 -0.951078349,10.844852 2.31054481,14.2109399 L13.5405107,25.8065326 C13.9003339,26.177963 14.3762291,26.3694818 14.8521242,26.3694818 C15.3280194,26.3694818 15.8039146,26.1837666 16.1637378,25.8065326 L27.3937037,14.2109399 C30.666934,10.844852 30.4754152,5.26178884 26.8307545,2.15105928 Z M26.0704829,12.9225407 L14.8811422,24.5181334 L3.64537279,12.9225407 C1.41679042,10.6243152 0.952502426,6.24259722 4.09224999,3.56713766 C7.27262274,0.851052894 11.0101411,2.81847327 12.3797907,4.23455165 L14.8579278,6.79393922 L17.336065,4.23455165 C18.6825002,2.84168767 22.4548401,0.868463693 25.6236057,3.56713766 C28.7575497,6.23679362 28.2990653,10.6185116 26.0704829,12.9225407 Z" id="Shape" fill-rule="nonzero"></path>
                    </g>
                </g>
                <g id="Group" transform="translate(585.713471, 14.171101)" fill="#FFFFFF" fill-opacity="0.4">
                    <g>
                        <path d="M140.625058,21 C142.281912,21 143.625058,22.3431458 143.625058,24 C143.625058,25.6568542 142.281912,27 140.625058,27 C138.968204,27 137.625058,25.6568542 137.625058,24 C137.625058,22.3431458 138.968204,21 140.625058,21 Z M140.625058,11 C142.281912,11 143.625058,12.3431458 143.625058,14 C143.625058,15.6568542 142.281912,17 140.625058,17 C138.968204,17 137.625058,15.6568542 137.625058,14 C137.625058,12.3431458 138.968204,11 140.625058,11 Z M140.625058,1 C142.281912,1 143.625058,2.34314575 143.625058,4 C143.625058,5.65685425 142.281912,7 140.625058,7 C138.968204,7 137.625058,5.65685425 137.625058,4 C137.625058,2.34314575 138.968204,1 140.625058,1 Z" id="Combined-Shape"></path>
                        <path d="M112.3214,13.3449653 C112.33464,20.5075336 106.493404,26.3644428 99.3308356,26.3694784 C96.2373128,26.3716767 93.3957693,25.2933076 91.1627611,23.4910808 C90.5821129,23.0224526 90.5387097,22.1522404 91.066362,21.6245881 L91.6569699,21.0339802 C92.1082473,20.5827028 92.8286977,20.5333239 93.3286726,20.9299804 C94.9738513,22.2354822 97.055892,23.0146946 99.3214002,23.0146946 C104.652701,23.0146946 108.966545,18.7000125 108.966545,13.36955 C108.966545,8.03824871 104.651863,3.72440537 99.3214002,3.72440537 C96.7626062,3.72440537 94.4385981,4.71874639 92.7130084,6.34180407 L95.3734957,9.0022914 C95.9018819,9.53067758 95.5276608,10.4340712 94.7804766,10.4340712 L87.1601309,10.4340712 C86.6969019,10.4340712 86.3214227,10.058592 86.3214227,9.59536295 L86.3214227,1.97501727 C86.3214227,1.22783308 87.2248163,0.853611951 87.7532025,1.38194571 L90.3412464,3.96998962 C92.6751093,1.73960235 95.8382449,0.369572466 99.3214002,0.369572466 C106.49288,0.369572466 112.308116,6.17657854 112.3214,13.3449653 Z M102.838104,17.4747646 L103.353018,16.8127093 C103.779606,16.2642466 103.680796,15.4738165 103.132333,15.0472809 L100.998817,13.3878443 L100.998817,7.9179465 C100.998817,7.22312915 100.435572,6.65988416 99.7407543,6.65988416 L98.9020461,6.65988416 C98.2072287,6.65988416 97.6439837,7.22312915 97.6439837,7.9179465 L97.6439837,15.0286721 L101.072675,17.6954497 C101.621138,18.1219853 102.411516,18.0232274 102.838104,17.4747646 L102.838104,17.4747646 Z" id="Shape" fill-rule="nonzero"></path>
                        <path d="M58.0177873,0.369481766 C65.1974891,0.369481766 71.0177873,6.18978002 71.0177873,13.3694818 C71.0177873,20.5491835 65.1974891,26.3694818 58.0177873,26.3694818 C50.8380856,26.3694818 45.0177873,20.5491835 45.0177873,13.3694818 C45.0177873,6.18978002 50.8380856,0.369481766 58.0177873,0.369481766 Z M62.5348077,9.26760588 C60.6682237,9.26760588 59.4123123,10.1893757 59.4123123,11.6526854 C59.4123123,14.510172 63.7100642,13.6229685 63.7100642,15.1438887 C63.7100642,15.63934 63.2607014,15.915871 62.5117634,15.915871 C61.6591263,15.915871 60.4838697,15.443464 59.6542769,14.7060481 L58.9283831,16.192402 C59.8386308,16.9643842 61.163675,17.4713576 62.4887192,17.4713576 C64.2746483,17.4713576 65.6458041,16.6187205 65.6458041,15.0401896 C65.6573031,12.1366146 61.3595511,12.9662075 61.3595511,11.4798536 C61.3595511,11.0420129 61.7743475,10.8230925 62.3850201,10.8230925 C63.030259,10.8230925 64.0442058,11.145712 64.8968429,11.6526854 L65.5996925,10.1432873 C64.7931438,9.61326958 63.6639758,9.26760588 62.5348077,9.26760588 Z M52.3485085,9.34826075 L50.3897476,9.34826075 L53.5583315,17.413747 L55.4364376,17.413747 L58.6395878,9.34826075 L56.7614817,9.34826075 L54.5492341,15.4319418 L52.3485085,9.34826075 Z" id="Combined-Shape"></path>
                        <path d="M26.8307545,2.15105928 C23.6677925,-0.541811088 18.9378586,-0.0949338942 16.001237,2.93454527 L14.8579278,4.11847965 L13.7146187,2.94034887 C11.3467499,0.491229698 6.57038715,-0.982884683 2.8851012,2.15105928 C-0.759559552,5.26178884 -0.951078349,10.844852 2.31054481,14.2109399 L13.5405107,25.8065326 C13.9003339,26.177963 14.3762291,26.3694818 14.8521242,26.3694818 C15.3280194,26.3694818 15.8039146,26.1837666 16.1637378,25.8065326 L27.3937037,14.2109399 C30.666934,10.844852 30.4754152,5.26178884 26.8307545,2.15105928 Z M26.0704829,12.9225407 L14.8811422,24.5181334 L3.64537279,12.9225407 C1.41679042,10.6243152 0.952502426,6.24259722 4.09224999,3.56713766 C7.27262274,0.851052894 11.0101411,2.81847327 12.3797907,4.23455165 L14.8579278,6.79393922 L17.336065,4.23455165 C18.6825002,2.84168767 22.4548401,0.868463693 25.6236057,3.56713766 C28.7575497,6.23679362 28.2990653,10.6185116 26.0704829,12.9225407 Z" id="Shape" fill-rule="nonzero"></path>
                    </g>
                </g>
                <g id="Group" transform="translate(585.713471, 14.171101)" fill="#FFFFFF" fill-opacity="0.4">
                    <g>
                        <path d="M140.625058,21 C142.281912,21 143.625058,22.3431458 143.625058,24 C143.625058,25.6568542 142.281912,27 140.625058,27 C138.968204,27 137.625058,25.6568542 137.625058,24 C137.625058,22.3431458 138.968204,21 140.625058,21 Z M140.625058,11 C142.281912,11 143.625058,12.3431458 143.625058,14 C143.625058,15.6568542 142.281912,17 140.625058,17 C138.968204,17 137.625058,15.6568542 137.625058,14 C137.625058,12.3431458 138.968204,11 140.625058,11 Z M140.625058,1 C142.281912,1 143.625058,2.34314575 143.625058,4 C143.625058,5.65685425 142.281912,7 140.625058,7 C138.968204,7 137.625058,5.65685425 137.625058,4 C137.625058,2.34314575 138.968204,1 140.625058,1 Z" id="Combined-Shape"></path>
                        <path d="M112.3214,13.3449653 C112.33464,20.5075336 106.493404,26.3644428 99.3308356,26.3694784 C96.2373128,26.3716767 93.3957693,25.2933076 91.1627611,23.4910808 C90.5821129,23.0224526 90.5387097,22.1522404 91.066362,21.6245881 L91.6569699,21.0339802 C92.1082473,20.5827028 92.8286977,20.5333239 93.3286726,20.9299804 C94.9738513,22.2354822 97.055892,23.0146946 99.3214002,23.0146946 C104.652701,23.0146946 108.966545,18.7000125 108.966545,13.36955 C108.966545,8.03824871 104.651863,3.72440537 99.3214002,3.72440537 C96.7626062,3.72440537 94.4385981,4.71874639 92.7130084,6.34180407 L95.3734957,9.0022914 C95.9018819,9.53067758 95.5276608,10.4340712 94.7804766,10.4340712 L87.1601309,10.4340712 C86.6969019,10.4340712 86.3214227,10.058592 86.3214227,9.59536295 L86.3214227,1.97501727 C86.3214227,1.22783308 87.2248163,0.853611951 87.7532025,1.38194571 L90.3412464,3.96998962 C92.6751093,1.73960235 95.8382449,0.369572466 99.3214002,0.369572466 C106.49288,0.369572466 112.308116,6.17657854 112.3214,13.3449653 Z M102.838104,17.4747646 L103.353018,16.8127093 C103.779606,16.2642466 103.680796,15.4738165 103.132333,15.0472809 L100.998817,13.3878443 L100.998817,7.9179465 C100.998817,7.22312915 100.435572,6.65988416 99.7407543,6.65988416 L98.9020461,6.65988416 C98.2072287,6.65988416 97.6439837,7.22312915 97.6439837,7.9179465 L97.6439837,15.0286721 L101.072675,17.6954497 C101.621138,18.1219853 102.411516,18.0232274 102.838104,17.4747646 L102.838104,17.4747646 Z" id="Shape" fill-rule="nonzero"></path>
                        <path d="M58.0177873,0.369481766 C65.1974891,0.369481766 71.0177873,6.18978002 71.0177873,13.3694818 C71.0177873,20.5491835 65.1974891,26.3694818 58.0177873,26.3694818 C50.8380856,26.3694818 45.0177873,20.5491835 45.0177873,13.3694818 C45.0177873,6.18978002 50.8380856,0.369481766 58.0177873,0.369481766 Z M62.5348077,9.26760588 C60.6682237,9.26760588 59.4123123,10.1893757 59.4123123,11.6526854 C59.4123123,14.510172 63.7100642,13.6229685 63.7100642,15.1438887 C63.7100642,15.63934 63.2607014,15.915871 62.5117634,15.915871 C61.6591263,15.915871 60.4838697,15.443464 59.6542769,14.7060481 L58.9283831,16.192402 C59.8386308,16.9643842 61.163675,17.4713576 62.4887192,17.4713576 C64.2746483,17.4713576 65.6458041,16.6187205 65.6458041,15.0401896 C65.6573031,12.1366146 61.3595511,12.9662075 61.3595511,11.4798536 C61.3595511,11.0420129 61.7743475,10.8230925 62.3850201,10.8230925 C63.030259,10.8230925 64.0442058,11.145712 64.8968429,11.6526854 L65.5996925,10.1432873 C64.7931438,9.61326958 63.6639758,9.26760588 62.5348077,9.26760588 Z M52.3485085,9.34826075 L50.3897476,9.34826075 L53.5583315,17.413747 L55.4364376,17.413747 L58.6395878,9.34826075 L56.7614817,9.34826075 L54.5492341,15.4319418 L52.3485085,9.34826075 Z" id="Combined-Shape"></path>
                        <path d="M26.8307545,2.15105928 C23.6677925,-0.541811088 18.9378586,-0.0949338942 16.001237,2.93454527 L14.8579278,4.11847965 L13.7146187,2.94034887 C11.3467499,0.491229698 6.57038715,-0.982884683 2.8851012,2.15105928 C-0.759559552,5.26178884 -0.951078349,10.844852 2.31054481,14.2109399 L13.5405107,25.8065326 C13.9003339,26.177963 14.3762291,26.3694818 14.8521242,26.3694818 C15.3280194,26.3694818 15.8039146,26.1837666 16.1637378,25.8065326 L27.3937037,14.2109399 C30.666934,10.844852 30.4754152,5.26178884 26.8307545,2.15105928 Z M26.0704829,12.9225407 L14.8811422,24.5181334 L3.64537279,12.9225407 C1.41679042,10.6243152 0.952502426,6.24259722 4.09224999,3.56713766 C7.27262274,0.851052894 11.0101411,2.81847327 12.3797907,4.23455165 L14.8579278,6.79393922 L17.336065,4.23455165 C18.6825002,2.84168767 22.4548401,0.868463693 25.6236057,3.56713766 C28.7575497,6.23679362 28.2990653,10.6185116 26.0704829,12.9225407 Z" id="Shape" fill-rule="nonzero"></path>
                    </g>
                </g>
                <g id="Group" transform="translate(585.713471, 14.171101)" fill="#FFFFFF" fill-opacity="0.4">
                    <g>
                        <path d="M140.625058,21 C142.281912,21 143.625058,22.3431458 143.625058,24 C143.625058,25.6568542 142.281912,27 140.625058,27 C138.968204,27 137.625058,25.6568542 137.625058,24 C137.625058,22.3431458 138.968204,21 140.625058,21 Z M140.625058,11 C142.281912,11 143.625058,12.3431458 143.625058,14 C143.625058,15.6568542 142.281912,17 140.625058,17 C138.968204,17 137.625058,15.6568542 137.625058,14 C137.625058,12.3431458 138.968204,11 140.625058,11 Z M140.625058,1 C142.281912,1 143.625058,2.34314575 143.625058,4 C143.625058,5.65685425 142.281912,7 140.625058,7 C138.968204,7 137.625058,5.65685425 137.625058,4 C137.625058,2.34314575 138.968204,1 140.625058,1 Z" id="Combined-Shape"></path>
                        <path d="M112.3214,13.3449653 C112.33464,20.5075336 106.493404,26.3644428 99.3308356,26.3694784 C96.2373128,26.3716767 93.3957693,25.2933076 91.1627611,23.4910808 C90.5821129,23.0224526 90.5387097,22.1522404 91.066362,21.6245881 L91.6569699,21.0339802 C92.1082473,20.5827028 92.8286977,20.5333239 93.3286726,20.9299804 C94.9738513,22.2354822 97.055892,23.0146946 99.3214002,23.0146946 C104.652701,23.0146946 108.966545,18.7000125 108.966545,13.36955 C108.966545,8.03824871 104.651863,3.72440537 99.3214002,3.72440537 C96.7626062,3.72440537 94.4385981,4.71874639 92.7130084,6.34180407 L95.3734957,9.0022914 C95.9018819,9.53067758 95.5276608,10.4340712 94.7804766,10.4340712 L87.1601309,10.4340712 C86.6969019,10.4340712 86.3214227,10.058592 86.3214227,9.59536295 L86.3214227,1.97501727 C86.3214227,1.22783308 87.2248163,0.853611951 87.7532025,1.38194571 L90.3412464,3.96998962 C92.6751093,1.73960235 95.8382449,0.369572466 99.3214002,0.369572466 C106.49288,0.369572466 112.308116,6.17657854 112.3214,13.3449653 Z M102.838104,17.4747646 L103.353018,16.8127093 C103.779606,16.2642466 103.680796,15.4738165 103.132333,15.0472809 L100.998817,13.3878443 L100.998817,7.9179465 C100.998817,7.22312915 100.435572,6.65988416 99.7407543,6.65988416 L98.9020461,6.65988416 C98.2072287,6.65988416 97.6439837,7.22312915 97.6439837,7.9179465 L97.6439837,15.0286721 L101.072675,17.6954497 C101.621138,18.1219853 102.411516,18.0232274 102.838104,17.4747646 L102.838104,17.4747646 Z" id="Shape" fill-rule="nonzero"></path>
                        <path d="M58.0177873,0.369481766 C65.1974891,0.369481766 71.0177873,6.18978002 71.0177873,13.3694818 C71.0177873,20.5491835 65.1974891,26.3694818 58.0177873,26.3694818 C50.8380856,26.3694818 45.0177873,20.5491835 45.0177873,13.3694818 C45.0177873,6.18978002 50.8380856,0.369481766 58.0177873,0.369481766 Z M62.5348077,9.26760588 C60.6682237,9.26760588 59.4123123,10.1893757 59.4123123,11.6526854 C59.4123123,14.510172 63.7100642,13.6229685 63.7100642,15.1438887 C63.7100642,15.63934 63.2607014,15.915871 62.5117634,15.915871 C61.6591263,15.915871 60.4838697,15.443464 59.6542769,14.7060481 L58.9283831,16.192402 C59.8386308,16.9643842 61.163675,17.4713576 62.4887192,17.4713576 C64.2746483,17.4713576 65.6458041,16.6187205 65.6458041,15.0401896 C65.6573031,12.1366146 61.3595511,12.9662075 61.3595511,11.4798536 C61.3595511,11.0420129 61.7743475,10.8230925 62.3850201,10.8230925 C63.030259,10.8230925 64.0442058,11.145712 64.8968429,11.6526854 L65.5996925,10.1432873 C64.7931438,9.61326958 63.6639758,9.26760588 62.5348077,9.26760588 Z M52.3485085,9.34826075 L50.3897476,9.34826075 L53.5583315,17.413747 L55.4364376,17.413747 L58.6395878,9.34826075 L56.7614817,9.34826075 L54.5492341,15.4319418 L52.3485085,9.34826075 Z" id="Combined-Shape"></path>
                        <path d="M26.8307545,2.15105928 C23.6677925,-0.541811088 18.9378586,-0.0949338942 16.001237,2.93454527 L14.8579278,4.11847965 L13.7146187,2.94034887 C11.3467499,0.491229698 6.57038715,-0.982884683 2.8851012,2.15105928 C-0.759559552,5.26178884 -0.951078349,10.844852 2.31054481,14.2109399 L13.5405107,25.8065326 C13.9003339,26.177963 14.3762291,26.3694818 14.8521242,26.3694818 C15.3280194,26.3694818 15.8039146,26.1837666 16.1637378,25.8065326 L27.3937037,14.2109399 C30.666934,10.844852 30.4754152,5.26178884 26.8307545,2.15105928 Z M26.0704829,12.9225407 L14.8811422,24.5181334 L3.64537279,12.9225407 C1.41679042,10.6243152 0.952502426,6.24259722 4.09224999,3.56713766 C7.27262274,0.851052894 11.0101411,2.81847327 12.3797907,4.23455165 L14.8579278,6.79393922 L17.336065,4.23455165 C18.6825002,2.84168767 22.4548401,0.868463693 25.6236057,3.56713766 C28.7575497,6.23679362 28.2990653,10.6185116 26.0704829,12.9225407 Z" id="Shape" fill-rule="nonzero"></path>
                    </g>
                </g>
                <g id="Group" transform="translate(585.713471, 14.171101)" fill="#FFFFFF" fill-opacity="0.4">
                    <g>
                        <path d="M140.625058,21 C142.281912,21 143.625058,22.3431458 143.625058,24 C143.625058,25.6568542 142.281912,27 140.625058,27 C138.968204,27 137.625058,25.6568542 137.625058,24 C137.625058,22.3431458 138.968204,21 140.625058,21 Z M140.625058,11 C142.281912,11 143.625058,12.3431458 143.625058,14 C143.625058,15.6568542 142.281912,17 140.625058,17 C138.968204,17 137.625058,15.6568542 137.625058,14 C137.625058,12.3431458 138.968204,11 140.625058,11 Z M140.625058,1 C142.281912,1 143.625058,2.34314575 143.625058,4 C143.625058,5.65685425 142.281912,7 140.625058,7 C138.968204,7 137.625058,5.65685425 137.625058,4 C137.625058,2.34314575 138.968204,1 140.625058,1 Z" id="Combined-Shape"></path>
                        <path d="M112.3214,13.3449653 C112.33464,20.5075336 106.493404,26.3644428 99.3308356,26.3694784 C96.2373128,26.3716767 93.3957693,25.2933076 91.1627611,23.4910808 C90.5821129,23.0224526 90.5387097,22.1522404 91.066362,21.6245881 L91.6569699,21.0339802 C92.1082473,20.5827028 92.8286977,20.5333239 93.3286726,20.9299804 C94.9738513,22.2354822 97.055892,23.0146946 99.3214002,23.0146946 C104.652701,23.0146946 108.966545,18.7000125 108.966545,13.36955 C108.966545,8.03824871 104.651863,3.72440537 99.3214002,3.72440537 C96.7626062,3.72440537 94.4385981,4.71874639 92.7130084,6.34180407 L95.3734957,9.0022914 C95.9018819,9.53067758 95.5276608,10.4340712 94.7804766,10.4340712 L87.1601309,10.4340712 C86.6969019,10.4340712 86.3214227,10.058592 86.3214227,9.59536295 L86.3214227,1.97501727 C86.3214227,1.22783308 87.2248163,0.853611951 87.7532025,1.38194571 L90.3412464,3.96998962 C92.6751093,1.73960235 95.8382449,0.369572466 99.3214002,0.369572466 C106.49288,0.369572466 112.308116,6.17657854 112.3214,13.3449653 Z M102.838104,17.4747646 L103.353018,16.8127093 C103.779606,16.2642466 103.680796,15.4738165 103.132333,15.0472809 L100.998817,13.3878443 L100.998817,7.9179465 C100.998817,7.22312915 100.435572,6.65988416 99.7407543,6.65988416 L98.9020461,6.65988416 C98.2072287,6.65988416 97.6439837,7.22312915 97.6439837,7.9179465 L97.6439837,15.0286721 L101.072675,17.6954497 C101.621138,18.1219853 102.411516,18.0232274 102.838104,17.4747646 L102.838104,17.4747646 Z" id="Shape" fill-rule="nonzero"></path>
                        <path d="M58.0177873,0.369481766 C65.1974891,0.369481766 71.0177873,6.18978002 71.0177873,13.3694818 C71.0177873,20.5491835 65.1974891,26.3694818 58.0177873,26.3694818 C50.8380856,26.3694818 45.0177873,20.5491835 45.0177873,13.3694818 C45.0177873,6.18978002 50.8380856,0.369481766 58.0177873,0.369481766 Z M62.5348077,9.26760588 C60.6682237,9.26760588 59.4123123,10.1893757 59.4123123,11.6526854 C59.4123123,14.510172 63.7100642,13.6229685 63.7100642,15.1438887 C63.7100642,15.63934 63.2607014,15.915871 62.5117634,15.915871 C61.6591263,15.915871 60.4838697,15.443464 59.6542769,14.7060481 L58.9283831,16.192402 C59.8386308,16.9643842 61.163675,17.4713576 62.4887192,17.4713576 C64.2746483,17.4713576 65.6458041,16.6187205 65.6458041,15.0401896 C65.6573031,12.1366146 61.3595511,12.9662075 61.3595511,11.4798536 C61.3595511,11.0420129 61.7743475,10.8230925 62.3850201,10.8230925 C63.030259,10.8230925 64.0442058,11.145712 64.8968429,11.6526854 L65.5996925,10.1432873 C64.7931438,9.61326958 63.6639758,9.26760588 62.5348077,9.26760588 Z M52.3485085,9.34826075 L50.3897476,9.34826075 L53.5583315,17.413747 L55.4364376,17.413747 L58.6395878,9.34826075 L56.7614817,9.34826075 L54.5492341,15.4319418 L52.3485085,9.34826075 Z" id="Combined-Shape"></path>
                        <path d="M26.8307545,2.15105928 C23.6677925,-0.541811088 18.9378586,-0.0949338942 16.001237,2.93454527 L14.8579278,4.11847965 L13.7146187,2.94034887 C11.3467499,0.491229698 6.57038715,-0.982884683 2.8851012,2.15105928 C-0.759559552,5.26178884 -0.951078349,10.844852 2.31054481,14.2109399 L13.5405107,25.8065326 C13.9003339,26.177963 14.3762291,26.3694818 14.8521242,26.3694818 C15.3280194,26.3694818 15.8039146,26.1837666 16.1637378,25.8065326 L27.3937037,14.2109399 C30.666934,10.844852 30.4754152,5.26178884 26.8307545,2.15105928 Z M26.0704829,12.9225407 L14.8811422,24.5181334 L3.64537279,12.9225407 C1.41679042,10.6243152 0.952502426,6.24259722 4.09224999,3.56713766 C7.27262274,0.851052894 11.0101411,2.81847327 12.3797907,4.23455165 L14.8579278,6.79393922 L17.336065,4.23455165 C18.6825002,2.84168767 22.4548401,0.868463693 25.6236057,3.56713766 C28.7575497,6.23679362 28.2990653,10.6185116 26.0704829,12.9225407 Z" id="Shape" fill-rule="nonzero"></path>
                    </g>
                </g>
            </g>
            <text id="6-HOURS-AGO" font-family="Montserrat-Regular, Montserrat" font-size="9" font-weight="normal" line-spacing="21" letter-spacing="-0.09" fill="#FFFFFF">
                <tspan x="347.870402" y="394.282467">6 HOURS AGO</tspan>
            </text>
        </g>
    </g>
</svg>