<?xml version="1.0" encoding="UTF-8"?>
<svg width="760px" height="415px" viewBox="0 0 760 415" version="1.1" xmlns="http://www.w3.org/2000/svg" xmlns:xlink="http://www.w3.org/1999/xlink">
    <title>id_0031--views-xtimes-comparedto</title>
    <defs>
        <radialGradient cx="50%" cy="0%" fx="50%" fy="0%" r="99.6976412%" gradientTransform="translate(0.500000,0.000000),scale(0.547269,1.000000),rotate(90.000000),scale(1.000000,1.615451),translate(-0.500000,-0.000000)" id="radialGradient-1">
            <stop stop-color="#FFFFFF" stop-opacity="0.260492925" offset="0%"></stop>
            <stop stop-color="#2EC4B6" stop-opacity="0" offset="100%"></stop>
        </radialGradient>
        <rect id="path-2" x="0" y="0" width="759.661622" height="415.738964" rx="8.75239923"></rect>
        <filter x="-6.2%" y="-10.8%" width="112.3%" height="122.5%" filterUnits="objectBoundingBox" id="filter-3">
            <feMorphology radius="0.729366603" operator="dilate" in="SourceAlpha" result="shadowSpreadOuter1"></feMorphology>
            <feOffset dx="0" dy="2" in="shadowSpreadOuter1" result="shadowOffsetOuter1"></feOffset>
            <feGaussianBlur stdDeviation="15" in="shadowOffsetOuter1" result="shadowBlurOuter1"></feGaussianBlur>
            <feComposite in="shadowBlurOuter1" in2="SourceAlpha" operator="out" result="shadowBlurOuter1"></feComposite>
            <feColorMatrix values="0 0 0 0 0   0 0 0 0 0   0 0 0 0 0  0 0 0 0.15 0" type="matrix" in="shadowBlurOuter1"></feColorMatrix>
        </filter>
        <linearGradient x1="50%" y1="0%" x2="50%" y2="99.6976412%" id="linearGradient-4">
            <stop stop-color="#000000" offset="0%"></stop>
            <stop stop-color="#4B0808" offset="100%"></stop>
        </linearGradient>
        <linearGradient x1="96.8715854%" y1="100%" x2="0%" y2="100%" id="linearGradient-5">
            <stop stop-color="#FFFFFF" offset="0%"></stop>
            <stop stop-color="#FFFFFF" stop-opacity="0.172491327" offset="100%"></stop>
        </linearGradient>
        <linearGradient x1="50%" y1="96.0520737%" x2="50%" y2="6.92043673%" id="linearGradient-6">
            <stop stop-color="#FE9E60" stop-opacity="0" offset="0%"></stop>
            <stop stop-color="#F3624F" stop-opacity="0.411432179" offset="35.5849473%"></stop>
            <stop stop-color="#E20C38" offset="89.2113746%"></stop>
            <stop stop-color="#E20C0C" offset="100%"></stop>
        </linearGradient>
        <path d="M759.664843,126.972762 L759.661622,406.986564 C759.661622,411.820381 755.743039,415.738964 750.909222,415.738964 L168.49957,415.737782 C216.910668,310.697231 285.414778,229.49708 472.263515,229.49708 C644.793588,229.49708 731.090921,191.257007 759.664843,126.972762 Z" id="path-7"></path>
    </defs>
    <g id="id_0031--views-xtimes-comparedto" stroke="none" stroke-width="1" fill="none" fill-rule="evenodd">
        <g id="Group-139" transform="translate(0.000000, -0.000000)">
            <g id="CARD-FEED" transform="translate(0.000000, 0.000000)">
                <g id="Group-29">
                    <g id="Rectangle">
                        <use fill="black" fill-opacity="1" filter="url(#filter-3)" xlink:href="#path-2"></use>
                        <use stroke-opacity="0.05" stroke="#FFFFFF" stroke-width="1.45873321" fill="url(#radialGradient-1)" fill-rule="evenodd" xlink:href="#path-2"></use>
                    </g>
                    <rect id="Rectangle" fill="url(#linearGradient-4)" x="0" y="0" width="759.661622" height="415.738964" rx="8.75239923"></rect>
                    <g id="LINES" opacity="0.57980928" transform="translate(67.984563, 66.997080)" fill="url(#linearGradient-5)">
                        <rect id="Rectangle" opacity="0.195594424" x="0" y="0" width="691.677058" height="5"></rect>
                        <rect id="Rectangle" opacity="0.195594424" x="0" y="80" width="691.677058" height="5"></rect>
                        <rect id="Rectangle" opacity="0.195594424" x="0" y="160" width="691.677058" height="5"></rect>
                        <rect id="Rectangle" opacity="0.195594424" x="0" y="240" width="691.677058" height="5"></rect>
                    </g>
                </g>
                <g id="Group-136" transform="translate(97.161054, 79.636690)" fill="#FFFFFF" font-weight="500">
                    <text id="MORE-REVIEWS-THAN-TH" opacity="0.5558617" font-family="Montserrat-SemiBold, Montserrat" font-size="23" letter-spacing="-0.12777778">
                        <tspan x="244.338529" y="22">MORE REVIEWS </tspan>
                        <tspan x="244.338529" y="50">THAN THE TOP </tspan>
                        <tspan x="244.338529" y="78">COMPETITOR SONG</tspan>
                    </text>
                    <text id="3.71x" font-family="Graphik-Semibold, Graphik" font-size="95" letter-spacing="-1.9">
                        <tspan x="0.405" y="78">3.71x</tspan>
                    </text>
                </g>
                <g id="Group" transform="translate(590.036563, 14.627598)" fill="#FFFFFF" fill-opacity="0.4">
                    <g>
                        <path d="M140.625058,21 C142.281912,21 143.625058,22.3431458 143.625058,24 C143.625058,25.6568542 142.281912,27 140.625058,27 C138.968204,27 137.625058,25.6568542 137.625058,24 C137.625058,22.3431458 138.968204,21 140.625058,21 Z M140.625058,11 C142.281912,11 143.625058,12.3431458 143.625058,14 C143.625058,15.6568542 142.281912,17 140.625058,17 C138.968204,17 137.625058,15.6568542 137.625058,14 C137.625058,12.3431458 138.968204,11 140.625058,11 Z M140.625058,1 C142.281912,1 143.625058,2.34314575 143.625058,4 C143.625058,5.65685425 142.281912,7 140.625058,7 C138.968204,7 137.625058,5.65685425 137.625058,4 C137.625058,2.34314575 138.968204,1 140.625058,1 Z" id="Combined-Shape"></path>
                        <path d="M112.3214,13.3449653 C112.33464,20.5075336 106.493404,26.3644428 99.3308356,26.3694784 C96.2373128,26.3716767 93.3957693,25.2933076 91.1627611,23.4910808 C90.5821129,23.0224526 90.5387097,22.1522404 91.066362,21.6245881 L91.6569699,21.0339802 C92.1082473,20.5827028 92.8286977,20.5333239 93.3286726,20.9299804 C94.9738513,22.2354822 97.055892,23.0146946 99.3214002,23.0146946 C104.652701,23.0146946 108.966545,18.7000125 108.966545,13.36955 C108.966545,8.03824871 104.651863,3.72440537 99.3214002,3.72440537 C96.7626062,3.72440537 94.4385981,4.71874639 92.7130084,6.34180407 L95.3734957,9.0022914 C95.9018819,9.53067758 95.5276608,10.4340712 94.7804766,10.4340712 L87.1601309,10.4340712 C86.6969019,10.4340712 86.3214227,10.058592 86.3214227,9.59536295 L86.3214227,1.97501727 C86.3214227,1.22783308 87.2248163,0.853611951 87.7532025,1.38194571 L90.3412464,3.96998962 C92.6751093,1.73960235 95.8382449,0.369572466 99.3214002,0.369572466 C106.49288,0.369572466 112.308116,6.17657854 112.3214,13.3449653 Z M102.838104,17.4747646 L103.353018,16.8127093 C103.779606,16.2642466 103.680796,15.4738165 103.132333,15.0472809 L100.998817,13.3878443 L100.998817,7.9179465 C100.998817,7.22312915 100.435572,6.65988416 99.7407543,6.65988416 L98.9020461,6.65988416 C98.2072287,6.65988416 97.6439837,7.22312915 97.6439837,7.9179465 L97.6439837,15.0286721 L101.072675,17.6954497 C101.621138,18.1219853 102.411516,18.0232274 102.838104,17.4747646 L102.838104,17.4747646 Z" id="Shape" fill-rule="nonzero"></path>
                        <path d="M58.0177873,0.369481766 C65.1974891,0.369481766 71.0177873,6.18978002 71.0177873,13.3694818 C71.0177873,20.5491835 65.1974891,26.3694818 58.0177873,26.3694818 C50.8380856,26.3694818 45.0177873,20.5491835 45.0177873,13.3694818 C45.0177873,6.18978002 50.8380856,0.369481766 58.0177873,0.369481766 Z M62.5348077,9.26760588 C60.6682237,9.26760588 59.4123123,10.1893757 59.4123123,11.6526854 C59.4123123,14.510172 63.7100642,13.6229685 63.7100642,15.1438887 C63.7100642,15.63934 63.2607014,15.915871 62.5117634,15.915871 C61.6591263,15.915871 60.4838697,15.443464 59.6542769,14.7060481 L58.9283831,16.192402 C59.8386308,16.9643842 61.163675,17.4713576 62.4887192,17.4713576 C64.2746483,17.4713576 65.6458041,16.6187205 65.6458041,15.0401896 C65.6573031,12.1366146 61.3595511,12.9662075 61.3595511,11.4798536 C61.3595511,11.0420129 61.7743475,10.8230925 62.3850201,10.8230925 C63.030259,10.8230925 64.0442058,11.145712 64.8968429,11.6526854 L65.5996925,10.1432873 C64.7931438,9.61326958 63.6639758,9.26760588 62.5348077,9.26760588 Z M52.3485085,9.34826075 L50.3897476,9.34826075 L53.5583315,17.413747 L55.4364376,17.413747 L58.6395878,9.34826075 L56.7614817,9.34826075 L54.5492341,15.4319418 L52.3485085,9.34826075 Z" id="Combined-Shape"></path>
                        <path d="M26.8307545,2.15105928 C23.6677925,-0.541811088 18.9378586,-0.0949338942 16.001237,2.93454527 L14.8579278,4.11847965 L13.7146187,2.94034887 C11.3467499,0.491229698 6.57038715,-0.982884683 2.8851012,2.15105928 C-0.759559552,5.26178884 -0.951078349,10.844852 2.31054481,14.2109399 L13.5405107,25.8065326 C13.9003339,26.177963 14.3762291,26.3694818 14.8521242,26.3694818 C15.3280194,26.3694818 15.8039146,26.1837666 16.1637378,25.8065326 L27.3937037,14.2109399 C30.666934,10.844852 30.4754152,5.26178884 26.8307545,2.15105928 Z M26.0704829,12.9225407 L14.8811422,24.5181334 L3.64537279,12.9225407 C1.41679042,10.6243152 0.952502426,6.24259722 4.09224999,3.56713766 C7.27262274,0.851052894 11.0101411,2.81847327 12.3797907,4.23455165 L14.8579278,6.79393922 L17.336065,4.23455165 C18.6825002,2.84168767 22.4548401,0.868463693 25.6236057,3.56713766 C28.7575497,6.23679362 28.2990653,10.6185116 26.0704829,12.9225407 Z" id="Shape" fill-rule="nonzero"></path>
                    </g>
                </g>
            </g>
            <g id="Group-137" opacity="0.787572952" transform="translate(12.661622, 51.997080)" fill="#FFFFFF" font-family="Montserrat-Light, Montserrat" font-size="23" font-weight="300" letter-spacing="-0.12777778">
                <text id="4.0x" opacity="0.268933977">
                    <tspan x="0.764111119" y="23">4.0x</tspan>
                </text>
                <text id="3.0x" opacity="0.268933977">
                    <tspan x="1.91411112" y="103">3.0x</tspan>
                </text>
                <text id="2.0x" opacity="0.268933977">
                    <tspan x="0.672111119" y="183">2.0x</tspan>
                </text>
                <text id="1.0x" opacity="0.268933977">
                    <tspan x="5.50211112" y="263">1.0x</tspan>
                </text>
            </g>
            <g id="Rectangle" transform="translate(168.499570, 116.972762)" fill="url(#linearGradient-6)">
                <path d="M591.166161,-0.00199590732 L591.162052,280.013803 C591.162052,284.847619 587.243469,288.766202 582.409653,288.766202 L7.99360578e-14,288.76502 C48.4110981,183.724469 116.915208,102.524318 303.763945,102.524318 C476.295804,102.524318 562.593138,64.2834544 591.166161,-0.00199590732 Z" id="Combined-Shape"></path>
            </g>
            <mask id="mask-8" fill="white">
                <use xlink:href="#path-7"></use>
            </mask>
            <use id="Combined-Shape" fill="#000000" opacity="0.375046503" style="mix-blend-mode: overlay;" xlink:href="#path-7"></use>
            <text id="7-MINS.-AGO" font-family="Montserrat-Regular, Montserrat" font-size="9" font-weight="normal" line-spacing="21" letter-spacing="-0.09" fill="#FFFFFF">
                <tspan x="345.933622" y="393.739454">7 MINS. AGO</tspan>
            </text>
        </g>
    </g>
</svg>