<svg width="23" height="22" viewBox="0 0 23 22" fill="none" xmlns="http://www.w3.org/2000/svg">
<path fill-rule="evenodd" clip-rule="evenodd" d="M0.936523 11.0002C0.936523 4.92508 5.86161 0.00012207 11.9367 0.00012207L11.9366 0.000647497C18.0125 0.000647497 22.937 4.92547 22.937 11.0002C22.937 17.0756 18.0125 22.0001 11.9367 22.0001C5.86161 22.0001 0.936523 17.0756 0.936523 11.0002ZM16.0382 16.0926C16.3613 16.291 16.7843 16.1885 16.9813 15.8654C17.1797 15.5422 17.0772 15.1206 16.7541 14.9222C13.8545 13.1502 10.2602 12.7376 6.06994 13.6954C5.70004 13.7794 5.46977 14.1472 5.55423 14.5163C5.6383 14.8855 6.0061 15.1166 6.37508 15.0326C10.2041 14.1577 13.4555 14.515 16.0382 16.0926ZM18.3277 12.8698C18.0795 13.2737 17.5514 13.4011 17.1482 13.1529C14.1913 11.335 9.68409 10.8087 6.18672 11.8703C5.73314 12.0073 5.25408 11.7517 5.11642 11.2989C4.97981 10.8453 5.23556 10.3672 5.68835 10.2293C9.6833 9.0171 14.6498 9.60426 18.0453 11.6909C18.4486 11.9391 18.576 12.4672 18.3277 12.8699V12.8698ZM5.66378 8.4788C9.04871 7.45146 14.898 7.64508 18.4433 9.75085H18.4439C18.9312 10.0412 19.5643 9.87998 19.8533 9.39107C20.1436 8.90282 19.9834 8.27139 19.4934 7.98122C15.4116 5.55808 8.95217 5.33018 5.06651 6.50976C4.52256 6.67501 4.21597 7.24943 4.38069 7.79325C4.54541 8.3368 5.12023 8.64365 5.66378 8.4788Z" fill="white" fill-opacity="0.4"/>
</svg>
